<svg xmlns="http://www.w3.org/2000/svg" xmlns:xlink="http://www.w3.org/1999/xlink" width="115" zoomAndPan="magnify" viewBox="0 0 86.25 30.000001" height="40" preserveAspectRatio="xMidYMid meet" version="1.0"><defs><g/><clipPath id="id1"><path d="M 1.753906 2.902344 L 37.320312 2.902344 L 37.320312 25.402344 L 1.753906 25.402344 Z M 1.753906 2.902344 " clip-rule="nonzero"/></clipPath></defs><g clip-path="url(#id1)"><path fill="#9ca3af" d="M 37.3125 22.171875 C 18.726562 24.601562 5.457031 27.519531 5.261719 15.542969 C 5.261719 15.542969 5.667969 10.902344 11.359375 10.609375 C 11.359375 10.609375 11.550781 6.488281 15.898438 6.023438 C 18.238281 5.769531 20.894531 8.175781 21.179688 10.710938 C 21.179688 10.710938 26.933594 9.644531 27.183594 15.253906 C 27.269531 17.210938 26.828125 20.53125 21.28125 20.386719 C 21.28125 20.386719 18.070312 19.953125 17.636719 14.988281 C 16.730469 24.597656 30.621094 24.039062 30.824219 15.3125 C 30.910156 11.539062 28.496094 7.65625 23.050781 8.386719 C 20.070312 0.878906 12.128906 1.3125 9.171875 8.273438 C 4.945312 8.273438 1.710938 11.527344 1.761719 15.773438 C 1.921875 29.449219 20.949219 25.324219 37.3125 22.171875 Z M 37.3125 22.171875 " fill-opacity="1" fill-rule="nonzero"/></g><g fill="#9ca3af" fill-opacity="1"><g transform="translate(35.426155, 17.419357)"><g><path d="M 3.578125 0.230469 C 4.886719 0.230469 5.988281 -0.429688 6.371094 -1.367188 L 5.605469 -1.679688 C 5.28125 -1.042969 4.507812 -0.566406 3.589844 -0.566406 C 2.328125 -0.566406 1.390625 -1.414062 1.261719 -2.628906 L 6.1875 -2.628906 C 6.199219 -2.746094 6.199219 -2.871094 6.199219 -2.976562 C 6.175781 -4.785156 5.050781 -6.082031 3.335938 -6.082031 C 1.597656 -6.082031 0.347656 -4.785156 0.347656 -2.988281 C 0.347656 -1.125 1.714844 0.230469 3.578125 0.230469 Z M 1.273438 -3.40625 C 1.4375 -4.519531 2.234375 -5.269531 3.324219 -5.269531 C 4.390625 -5.269531 5.144531 -4.597656 5.257812 -3.40625 Z M 1.273438 -3.40625 "/></g></g></g><g fill="#9ca3af" fill-opacity="1"><g transform="translate(42.072407, 17.419357)"><g><path d="M 3.128906 0.230469 C 4.125 0.230469 5.015625 -0.394531 5.179688 -1.414062 L 4.460938 -1.714844 C 4.34375 -0.960938 3.800781 -0.53125 3.207031 -0.53125 C 2.570312 -0.53125 2.167969 -1.007812 2.167969 -1.667969 L 2.167969 -5.121094 L 4.785156 -5.121094 L 4.785156 -5.851562 L 2.167969 -5.851562 L 2.167969 -7.796875 L 1.285156 -7.585938 L 1.285156 -5.851562 L 0 -5.851562 L 0 -5.121094 L 1.285156 -5.121094 L 1.285156 -1.574219 C 1.285156 -0.507812 2.027344 0.230469 3.128906 0.230469 Z M 3.128906 0.230469 "/></g></g></g><g fill="#9ca3af" fill-opacity="1"><g transform="translate(47.294468, 17.419357)"><g><path d="M 0.578125 0 L 1.460938 0 L 1.460938 -3.300781 C 1.460938 -4.496094 2.304688 -5.316406 3.476562 -5.316406 C 4.402344 -5.316406 4.992188 -4.679688 4.992188 -3.683594 L 4.992188 0 L 5.882812 0 L 5.882812 -3.777344 C 5.882812 -5.222656 5.0625 -6.082031 3.71875 -6.082031 C 2.699219 -6.082031 1.96875 -5.6875 1.472656 -4.980469 L 1.460938 -4.980469 L 1.460938 -8.515625 L 0.578125 -8.515625 Z M 0.578125 0 "/></g></g></g><g fill="#9ca3af" fill-opacity="1"><g transform="translate(53.697571, 17.419357)"><g><path d="M 3.578125 0.230469 C 4.886719 0.230469 5.988281 -0.429688 6.371094 -1.367188 L 5.605469 -1.679688 C 5.28125 -1.042969 4.507812 -0.566406 3.589844 -0.566406 C 2.328125 -0.566406 1.390625 -1.414062 1.261719 -2.628906 L 6.1875 -2.628906 C 6.199219 -2.746094 6.199219 -2.871094 6.199219 -2.976562 C 6.175781 -4.785156 5.050781 -6.082031 3.335938 -6.082031 C 1.597656 -6.082031 0.347656 -4.785156 0.347656 -2.988281 C 0.347656 -1.125 1.714844 0.230469 3.578125 0.230469 Z M 1.273438 -3.40625 C 1.4375 -4.519531 2.234375 -5.269531 3.324219 -5.269531 C 4.390625 -5.269531 5.144531 -4.597656 5.257812 -3.40625 Z M 1.273438 -3.40625 "/></g></g></g><g fill="#9ca3af" fill-opacity="1"><g transform="translate(60.343823, 17.419357)"><g><path d="M 3.117188 -6.09375 C 2.375 -6.09375 1.75 -5.640625 1.425781 -4.933594 L 1.414062 -4.933594 L 1.332031 -5.851562 L 0.578125 -5.851562 L 0.578125 0 L 1.460938 0 L 1.460938 -3.21875 C 1.460938 -4.496094 2.050781 -5.269531 2.988281 -5.269531 C 3.625 -5.269531 4.054688 -4.832031 4.148438 -4.007812 L 4.910156 -4.261719 C 4.796875 -5.433594 4.113281 -6.09375 3.117188 -6.09375 Z M 3.117188 -6.09375 "/></g></g></g><g fill="#9ca3af" fill-opacity="1"><g transform="translate(65.484826, 17.419357)"><g><path d="M 3 0.230469 C 4.414062 0.230469 5.480469 -0.578125 5.480469 -1.679688 C 5.480469 -2.546875 4.886719 -3.035156 3.511719 -3.324219 L 2.558594 -3.511719 C 1.75 -3.683594 1.402344 -3.925781 1.402344 -4.355469 C 1.414062 -4.855469 1.957031 -5.304688 2.699219 -5.304688 C 3.53125 -5.304688 4.148438 -4.855469 4.226562 -4.238281 L 5.074219 -4.472656 C 4.855469 -5.421875 3.9375 -6.082031 2.710938 -6.082031 C 1.460938 -6.082031 0.554688 -5.328125 0.542969 -4.308594 C 0.542969 -3.453125 1.066406 -2.964844 2.28125 -2.710938 L 3.207031 -2.523438 C 4.195312 -2.328125 4.621094 -2.050781 4.621094 -1.597656 C 4.621094 -0.996094 3.914062 -0.566406 3 -0.566406 C 1.957031 -0.566406 1.171875 -1.136719 1.101562 -1.945312 L 0.230469 -1.773438 C 0.335938 -0.519531 1.539062 0.230469 3 0.230469 Z M 3 0.230469 "/></g></g></g><g fill="#9ca3af" fill-opacity="1"><g transform="translate(71.193198, 17.419357)"><g><path d="M 1.113281 0.140625 C 1.496094 0.140625 1.773438 -0.128906 1.773438 -0.507812 C 1.773438 -0.878906 1.496094 -1.148438 1.113281 -1.148438 C 0.730469 -1.148438 0.464844 -0.878906 0.464844 -0.507812 C 0.464844 -0.128906 0.730469 0.140625 1.113281 0.140625 Z M 1.113281 0.140625 "/></g></g></g><g fill="#9ca3af" fill-opacity="1"><g transform="translate(73.427919, 17.419357)"><g><path d="M 1.125 -6.984375 C 1.507812 -6.984375 1.785156 -7.25 1.785156 -7.632812 C 1.785156 -8.003906 1.507812 -8.269531 1.125 -8.269531 C 0.742188 -8.269531 0.476562 -8.003906 0.476562 -7.632812 C 0.476562 -7.25 0.742188 -6.984375 1.125 -6.984375 Z M -0.21875 2.664062 C 0.890625 2.664062 1.5625 2.003906 1.5625 0.914062 L 1.5625 -5.851562 L 0.671875 -5.851562 L 0.671875 0.835938 C 0.671875 1.496094 0.3125 1.886719 -0.289062 1.886719 C -0.488281 1.886719 -0.730469 1.851562 -0.949219 1.773438 L -1.054688 2.503906 C -0.8125 2.617188 -0.5 2.664062 -0.21875 2.664062 Z M -0.21875 2.664062 "/></g></g></g><g fill="#9ca3af" fill-opacity="1"><g transform="translate(75.674214, 17.419357)"><g><path d="M 3 0.230469 C 4.414062 0.230469 5.480469 -0.578125 5.480469 -1.679688 C 5.480469 -2.546875 4.886719 -3.035156 3.511719 -3.324219 L 2.558594 -3.511719 C 1.75 -3.683594 1.402344 -3.925781 1.402344 -4.355469 C 1.414062 -4.855469 1.957031 -5.304688 2.699219 -5.304688 C 3.53125 -5.304688 4.148438 -4.855469 4.226562 -4.238281 L 5.074219 -4.472656 C 4.855469 -5.421875 3.9375 -6.082031 2.710938 -6.082031 C 1.460938 -6.082031 0.554688 -5.328125 0.542969 -4.308594 C 0.542969 -3.453125 1.066406 -2.964844 2.28125 -2.710938 L 3.207031 -2.523438 C 4.195312 -2.328125 4.621094 -2.050781 4.621094 -1.597656 C 4.621094 -0.996094 3.914062 -0.566406 3 -0.566406 C 1.957031 -0.566406 1.171875 -1.136719 1.101562 -1.945312 L 0.230469 -1.773438 C 0.335938 -0.519531 1.539062 0.230469 3 0.230469 Z M 3 0.230469 "/></g></g></g></svg>