<svg xmlns="http://www.w3.org/2000/svg" xmlns:xlink="http://www.w3.org/1999/xlink" width="115" zoomAndPan="magnify" viewBox="0 0 86.25 30.000001" height="40" preserveAspectRatio="xMidYMid meet" version="1.0"><defs><filter x="0%" y="0%" width="100%" height="100%" id="id1"><feColorMatrix values="0 0 0 0 1 0 0 0 0 1 0 0 0 0 1 0 0 0 1 0" color-interpolation-filters="sRGB"/></filter><clipPath id="id2"><path d="M 22 8 L 83.691406 8 L 83.691406 20 L 22 20 Z M 22 8 " clip-rule="nonzero"/></clipPath><clipPath id="id3"><path d="M 1.675781 10 L 20 10 L 20 20 L 1.675781 20 Z M 1.675781 10 " clip-rule="nonzero"/></clipPath><mask id="id4"><g filter="url(#id1)"><rect x="-8.625" width="103.5" fill="#000000" y="-3" height="36.000001" fill-opacity="0.6"/></g></mask><clipPath id="id5"><path d="M 0.675781 0.492188 L 17.953125 0.492188 L 17.953125 9.527344 L 0.675781 9.527344 Z M 0.675781 0.492188 " clip-rule="nonzero"/></clipPath><clipPath id="id6"><rect x="0" width="19" y="0" height="10"/></clipPath><clipPath id="id7"><path d="M 1.675781 0 L 11 0 L 11 20 L 1.675781 20 Z M 1.675781 0 " clip-rule="nonzero"/></clipPath><mask id="id8"><g filter="url(#id1)"><rect x="-8.625" width="103.5" fill="#000000" y="-3" height="36.000001" fill-opacity="0.4471"/></g></mask><clipPath id="id9"><path d="M 0.675781 0.0859375 L 9.308594 0.0859375 L 9.308594 19.527344 L 0.675781 19.527344 Z M 0.675781 0.0859375 " clip-rule="nonzero"/></clipPath><clipPath id="id10"><rect x="0" width="10" y="0" height="20"/></clipPath><mask id="id11"><g filter="url(#id1)"><rect x="-8.625" width="103.5" fill="#000000" y="-3" height="36.000001" fill-opacity="0.8"/></g></mask><clipPath id="id12"><path d="M 0.308594 0.0859375 L 8.957031 0.0859375 L 8.957031 19.527344 L 0.308594 19.527344 Z M 0.308594 0.0859375 " clip-rule="nonzero"/></clipPath><clipPath id="id13"><rect x="0" width="10" y="0" height="20"/></clipPath><clipPath id="id14"><path d="M 1.675781 16 L 11 16 L 11 28.304688 L 1.675781 28.304688 Z M 1.675781 16 " clip-rule="nonzero"/></clipPath><mask id="id15"><g filter="url(#id1)"><rect x="-8.625" width="103.5" fill="#000000" y="-3" height="36.000001" fill-opacity="0.4471"/></g></mask><clipPath id="id16"><path d="M 0.675781 0.0585938 L 9.308594 0.0585938 L 9.308594 12.230469 L 0.675781 12.230469 Z M 0.675781 0.0585938 " clip-rule="nonzero"/></clipPath><clipPath id="id17"><rect x="0" width="10" y="0" height="13"/></clipPath><clipPath id="id18"><path d="M 10 16 L 20 16 L 20 28.304688 L 10 28.304688 Z M 10 16 " clip-rule="nonzero"/></clipPath><mask id="id19"><g filter="url(#id1)"><rect x="-8.625" width="103.5" fill="#000000" y="-3" height="36.000001" fill-opacity="0.8"/></g></mask><clipPath id="id20"><path d="M 0.308594 0.0585938 L 8.960938 0.0585938 L 8.960938 12.230469 L 0.308594 12.230469 Z M 0.308594 0.0585938 " clip-rule="nonzero"/></clipPath><clipPath id="id21"><rect x="0" width="10" y="0" height="13"/></clipPath></defs><g clip-path="url(#id2)"><path fill="#9ca3ae" d="M 28.078125 16.457031 C 28.078125 16.59375 27.964844 16.703125 27.828125 16.703125 L 23.058594 16.703125 C 23.175781 17.882812 24.0625 18.957031 25.3125 18.957031 C 25.707031 18.972656 26.078125 18.890625 26.425781 18.710938 C 26.777344 18.53125 27.058594 18.277344 27.273438 17.949219 C 27.34375 17.855469 27.449219 17.796875 27.578125 17.851562 C 27.65625 17.886719 27.699219 17.945312 27.714844 18.027344 C 27.726562 18.105469 27.703125 18.148438 27.683594 18.191406 C 27.203125 19.027344 26.246094 19.441406 25.308594 19.441406 C 23.707031 19.441406 22.5625 18.003906 22.5625 16.46875 C 22.5625 14.933594 23.707031 13.5 25.308594 13.5 C 26.914062 13.5 28.074219 14.929688 28.078125 16.460938 M 27.578125 16.230469 C 27.476562 15.050781 26.574219 13.976562 25.324219 13.976562 C 24.074219 13.976562 23.1875 15.050781 23.070312 16.230469 Z M 33.878906 13.617188 C 34.019531 13.617188 34.117188 13.734375 34.117188 13.855469 C 34.117188 13.992188 34.015625 14.089844 33.878906 14.089844 L 32.601562 14.089844 L 32.601562 19.105469 C 32.601562 19.226562 32.496094 19.34375 32.363281 19.34375 C 32.230469 19.34375 32.125 19.226562 32.125 19.105469 L 32.125 14.089844 L 30.898438 14.089844 C 30.757812 14.089844 30.660156 13.988281 30.660156 13.855469 C 30.660156 13.734375 30.761719 13.617188 30.898438 13.617188 L 32.125 13.617188 L 32.125 11.777344 C 32.125 11.660156 32.203125 11.554688 32.324219 11.535156 C 32.484375 11.511719 32.609375 11.621094 32.609375 11.769531 L 32.609375 13.613281 Z M 41.675781 16.039062 L 41.675781 19.078125 C 41.675781 19.21875 41.554688 19.316406 41.4375 19.316406 C 41.300781 19.316406 41.199219 19.210938 41.199219 19.078125 L 41.199219 16.050781 C 41.199219 15.027344 40.621094 14 39.476562 14 C 38.007812 14 37.375 15.28125 37.460938 16.597656 C 37.460938 16.628906 37.476562 16.785156 37.476562 16.800781 L 37.476562 19.078125 C 37.476562 19.195312 37.398438 19.300781 37.277344 19.320312 C 37.117188 19.347656 36.992188 19.238281 36.992188 19.085938 L 36.992188 9.105469 C 36.992188 8.988281 37.09375 8.871094 37.230469 8.871094 C 37.363281 8.871094 37.464844 8.988281 37.464844 9.105469 L 37.464844 14.753906 C 37.867188 14.023438 38.609375 13.527344 39.464844 13.527344 C 40.863281 13.527344 41.667969 14.753906 41.667969 16.054688 M 50.222656 16.472656 C 50.222656 16.609375 50.109375 16.71875 49.976562 16.71875 L 45.203125 16.71875 C 45.320312 17.894531 46.207031 18.96875 47.457031 18.96875 C 47.847656 18.988281 48.21875 18.90625 48.570312 18.726562 C 48.921875 18.546875 49.203125 18.292969 49.417969 17.964844 C 49.488281 17.871094 49.589844 17.8125 49.722656 17.867188 C 49.796875 17.902344 49.84375 17.957031 49.855469 18.039062 C 49.871094 18.117188 49.847656 18.164062 49.828125 18.207031 C 49.347656 19.042969 48.390625 19.453125 47.453125 19.453125 C 45.847656 19.453125 44.707031 18.019531 44.707031 16.484375 C 44.707031 14.949219 45.851562 13.515625 47.453125 13.515625 C 49.058594 13.515625 50.222656 14.941406 50.226562 16.476562 M 49.710938 16.246094 C 49.605469 15.066406 48.703125 13.992188 47.457031 13.992188 C 46.207031 13.992188 45.320312 15.066406 45.203125 16.246094 Z M 56.09375 13.855469 C 56.09375 14.007812 56.007812 14.089844 55.871094 14.109375 C 54.46875 14.3125 53.835938 15.457031 53.835938 16.789062 L 53.835938 19.070312 C 53.835938 19.183594 53.757812 19.292969 53.636719 19.3125 C 53.476562 19.335938 53.351562 19.226562 53.351562 19.074219 L 53.351562 13.878906 C 53.351562 13.761719 53.429688 13.65625 53.554688 13.636719 C 53.710938 13.613281 53.835938 13.722656 53.835938 13.871094 L 53.835938 14.929688 C 54.230469 14.265625 55.015625 13.632812 55.835938 13.632812 C 55.953125 13.628906 56.089844 13.71875 56.089844 13.851562 M 63.929688 16.472656 C 63.929688 16.609375 63.816406 16.71875 63.679688 16.71875 L 58.910156 16.71875 C 59.027344 17.898438 59.914062 18.972656 61.164062 18.972656 C 61.558594 18.988281 61.929688 18.90625 62.277344 18.726562 C 62.628906 18.546875 62.910156 18.292969 63.125 17.964844 C 63.195312 17.871094 63.300781 17.8125 63.429688 17.867188 C 63.507812 17.902344 63.550781 17.960938 63.566406 18.042969 C 63.578125 18.121094 63.554688 18.164062 63.535156 18.207031 C 63.054688 19.042969 62.097656 19.457031 61.160156 19.457031 C 59.558594 19.457031 58.414062 18.019531 58.414062 16.484375 C 58.414062 14.953125 59.558594 13.515625 61.160156 13.515625 C 62.765625 13.515625 63.925781 14.945312 63.929688 16.476562 M 63.429688 16.246094 C 63.328125 15.066406 62.425781 13.992188 61.175781 13.992188 C 59.925781 13.992188 59.039062 15.066406 58.921875 16.246094 Z M 71.644531 13.914062 L 71.644531 19.125 C 71.644531 19.261719 71.523438 19.363281 71.40625 19.363281 C 71.269531 19.363281 71.167969 19.257812 71.167969 19.125 L 71.167969 18.125 C 70.777344 18.910156 70.074219 19.472656 69.1875 19.472656 C 67.769531 19.472656 66.984375 18.246094 66.984375 16.949219 L 66.984375 13.890625 C 66.984375 13.773438 67.085938 13.65625 67.222656 13.65625 C 67.355469 13.65625 67.457031 13.773438 67.457031 13.890625 L 67.457031 16.949219 C 67.457031 17.972656 68.039062 18.996094 69.183594 18.996094 C 70.789062 18.996094 71.164062 17.496094 71.164062 15.839844 L 71.164062 13.882812 C 71.164062 13.746094 71.304688 13.605469 71.472656 13.65625 C 71.574219 13.6875 71.644531 13.789062 71.644531 13.894531 M 83.71875 16.019531 L 83.71875 19.074219 C 83.71875 19.210938 83.597656 19.3125 83.480469 19.3125 C 83.339844 19.3125 83.242188 19.207031 83.242188 19.074219 L 83.242188 16.019531 C 83.242188 14.996094 82.660156 13.988281 81.515625 13.988281 C 80.082031 13.988281 79.535156 15.523438 79.535156 16.71875 L 79.535156 19.074219 C 79.535156 19.210938 79.414062 19.3125 79.296875 19.3125 C 79.160156 19.3125 79.058594 19.207031 79.058594 19.074219 L 79.058594 16.019531 C 79.058594 14.996094 78.480469 13.988281 77.335938 13.988281 C 75.882812 13.988281 75.285156 15.132812 75.335938 16.652344 C 75.335938 16.6875 75.355469 16.757812 75.335938 16.773438 L 75.335938 19.070312 C 75.335938 19.183594 75.257812 19.292969 75.144531 19.3125 C 74.984375 19.335938 74.859375 19.226562 74.859375 19.074219 L 74.859375 13.855469 C 74.859375 13.738281 74.9375 13.632812 75.058594 13.613281 C 75.21875 13.585938 75.34375 13.695312 75.34375 13.847656 L 75.34375 14.71875 C 75.742188 13.984375 76.488281 13.503906 77.339844 13.503906 C 78.3125 13.503906 79.0625 14.121094 79.371094 15.023438 C 79.761719 14.136719 80.53125 13.503906 81.523438 13.503906 C 82.921875 13.503906 83.726562 14.703125 83.726562 16 " fill-opacity="1" fill-rule="nonzero"/></g><g clip-path="url(#id3)"><g mask="url(#id4)"><g transform="matrix(1, 0, 0, 1, 1, 10)"><g clip-path="url(#id6)"><g clip-path="url(#id5)"><path fill="#9ca3ae" d="M 9.308594 0.492188 L 0.664062 4.421875 L 9.308594 9.527344 L 17.953125 4.421875 Z M 9.308594 0.492188 " fill-opacity="1" fill-rule="nonzero"/></g></g></g></g></g><g clip-path="url(#id7)"><g mask="url(#id8)"><g transform="matrix(1, 0, 0, 1, 1, 0.000000000000005692)"><g clip-path="url(#id10)"><g clip-path="url(#id9)"><path fill="#9ca3ae" d="M 0.664062 14.421875 L 9.308594 19.527344 L 9.308594 0.0859375 Z M 0.664062 14.421875 " fill-opacity="1" fill-rule="nonzero"/></g></g></g></g></g><g mask="url(#id11)"><g transform="matrix(1, 0, 0, 1, 10, 0.000000000000005692)"><g clip-path="url(#id13)"><g clip-path="url(#id12)"><path fill="#9ca3ae" d="M 0.308594 0.0859375 L 0.308594 19.527344 L 8.953125 14.421875 Z M 0.308594 0.0859375 " fill-opacity="1" fill-rule="nonzero"/></g></g></g></g><g clip-path="url(#id14)"><g mask="url(#id15)"><g transform="matrix(1, 0, 0, 1, 1, 16)"><g clip-path="url(#id17)"><g clip-path="url(#id16)"><path fill="#9ca3ae" d="M 0.664062 0.0585938 L 9.308594 12.230469 L 9.308594 5.164062 Z M 0.664062 0.0585938 " fill-opacity="1" fill-rule="nonzero"/></g></g></g></g></g><g clip-path="url(#id18)"><g mask="url(#id19)"><g transform="matrix(1, 0, 0, 1, 10, 16)"><g clip-path="url(#id21)"><g clip-path="url(#id20)"><path fill="#9ca3ae" d="M 0.308594 5.164062 L 0.308594 12.230469 L 8.960938 0.0585938 Z M 0.308594 5.164062 " fill-opacity="1" fill-rule="nonzero"/></g></g></g></g></g></svg>