<svg xmlns="http://www.w3.org/2000/svg" xmlns:xlink="http://www.w3.org/1999/xlink" width="115" zoomAndPan="magnify" viewBox="0 0 86.25 30.000001" height="40" preserveAspectRatio="xMidYMid meet" version="1.0"><defs><g/><clipPath id="id1"><path d="M 2.480469 19 L 34.414062 19 L 34.414062 24.675781 L 2.480469 24.675781 Z M 2.480469 19 " clip-rule="nonzero"/></clipPath><clipPath id="id2"><path d="M 12 2.902344 L 25 2.902344 L 25 11 L 12 11 Z M 12 2.902344 " clip-rule="nonzero"/></clipPath><clipPath id="id3"><path d="M 2.480469 19 L 34.414062 19 L 34.414062 24 L 2.480469 24 Z M 2.480469 19 " clip-rule="nonzero"/></clipPath></defs><g clip-path="url(#id1)"><path fill="#8d8f93" d="M 34.402344 21.160156 C 34.402344 21.160156 29.542969 20.449219 26.972656 20.246094 C 24.507812 20.050781 21.585938 19.9375 18.449219 19.9375 C 15.3125 19.9375 12.390625 20.050781 9.925781 20.246094 C 7.355469 20.453125 2.496094 21.4375 2.496094 21.4375 L 2.496094 22.675781 C 2.496094 23.78125 9.640625 24.675781 18.449219 24.675781 C 27.257812 24.675781 34.402344 23.78125 34.402344 22.675781 Z M 34.402344 21.160156 " fill-opacity="1" fill-rule="nonzero"/></g><path fill="#8d8f93" d="M 13.542969 4.71875 C 7.71875 6.769531 3.828125 12.210938 3.828125 18.316406 L 3.828125 20.359375 C 5.90625 19.867188 8.027344 19.566406 10.160156 19.453125 C 10.148438 19.058594 10.140625 18.664062 10.136719 18.265625 C 10.140625 12.902344 11.453125 8.078125 13.542969 4.71875 Z M 13.542969 4.71875 " fill-opacity="1" fill-rule="nonzero"/><path fill="#9ca3af" d="M 33.070312 18.316406 C 33.074219 14.964844 31.894531 11.71875 29.730469 9.140625 C 30.667969 12.09375 31.136719 15.171875 31.117188 18.269531 C 31.117188 18.832031 31.101562 19.386719 31.070312 19.9375 C 31.738281 20.039062 32.394531 20.179688 33.046875 20.351562 Z M 33.070312 18.316406 " fill-opacity="1" fill-rule="nonzero"/><path fill="#b2b8c4" d="M 33.070312 18.316406 C 33.074219 14.964844 31.894531 11.71875 29.730469 9.140625 C 30.667969 12.09375 31.136719 15.171875 31.117188 18.269531 C 31.117188 18.832031 31.101562 19.386719 31.070312 19.9375 C 31.738281 20.039062 32.394531 20.179688 33.046875 20.351562 Z M 33.070312 18.316406 " fill-opacity="1" fill-rule="nonzero"/><path fill="#9ca3af" d="M 29.730469 9.136719 C 25.816406 4.453125 19.34375 2.6875 13.542969 4.71875 C 11.453125 8.078125 10.140625 12.902344 10.140625 18.269531 C 10.140625 18.664062 10.148438 19.0625 10.164062 19.453125 C 12.339844 19.285156 14.859375 19.183594 17.558594 19.164062 C 17.558594 19.164062 18.171875 19.164062 18.449219 19.164062 C 22.671875 19.117188 26.890625 19.375 31.074219 19.941406 C 31.101562 19.390625 31.117188 18.835938 31.117188 18.269531 C 31.136719 15.175781 30.667969 12.09375 29.730469 9.136719 Z M 29.730469 9.136719 " fill-opacity="1" fill-rule="nonzero"/><g clip-path="url(#id2)"><path fill="#9ca3af" d="M 24.328125 10.09375 L 23.402344 4.378906 C 23.335938 3.957031 23.03125 3.609375 22.621094 3.488281 C 19.917969 2.707031 17.050781 2.707031 14.347656 3.488281 C 13.9375 3.613281 13.632812 3.957031 13.566406 4.378906 L 12.636719 10.09375 " fill-opacity="1" fill-rule="nonzero"/></g><g clip-path="url(#id3)"><path fill="#9ca3af" d="M 18.449219 19.042969 C 18.171875 19.042969 17.894531 19.042969 17.621094 19.042969 L 17.558594 19.042969 C 9.164062 19.101562 2.496094 19.972656 2.496094 21.039062 L 2.496094 22.582031 C 2.484375 22.671875 2.503906 22.765625 2.550781 22.84375 C 2.980469 22.527344 3.46875 22.304688 3.988281 22.191406 C 5.316406 21.871094 6.664062 21.648438 8.023438 21.523438 C 8.796875 21.441406 9.566406 21.6875 10.140625 22.207031 C 11.1875 23.15625 12.558594 23.679688 13.984375 23.679688 L 22.914062 23.679688 C 24.335938 23.679688 25.707031 23.152344 26.757812 22.207031 C 27.332031 21.6875 28.101562 21.441406 28.875 21.523438 C 30.234375 21.648438 31.582031 21.871094 32.910156 22.191406 C 33.402344 22.285156 33.867188 22.484375 34.273438 22.777344 C 34.292969 22.800781 34.320312 22.820312 34.339844 22.84375 C 34.390625 22.765625 34.410156 22.671875 34.398438 22.582031 L 34.398438 21.035156 C 34.402344 19.9375 27.257812 19.042969 18.449219 19.042969 Z M 18.449219 19.042969 " fill-opacity="1" fill-rule="nonzero"/></g><path fill="#6e6f70" d="M 21.808594 14.460938 L 18.445312 16.503906 L 18.445312 19.15625 Z M 21.808594 14.460938 " fill-opacity="1" fill-rule="nonzero"/><path fill="#0a0a0a" d="M 18.449219 19.15625 L 18.449219 16.503906 L 15.085938 14.460938 Z M 18.449219 19.15625 " fill-opacity="1" fill-rule="nonzero"/><path fill="#0a0a0a" d="M 15.085938 13.246094 L 18.449219 15.167969 L 18.449219 7.875 Z M 15.085938 13.246094 " fill-opacity="1" fill-rule="nonzero"/><path fill="#6e6f70" d="M 21.808594 13.246094 L 18.445312 7.875 L 18.445312 15.167969 Z M 21.808594 13.246094 " fill-opacity="1" fill-rule="nonzero"/><g fill="#9ca3af" fill-opacity="1"><g transform="translate(37.431954, 18.87097)"><g><path d="M 7.1875 0 L 5.578125 0 L 5.578125 -3.28125 L 2.5625 -3.28125 L 2.5625 0 L 0.953125 0 L 0.953125 -7.59375 L 2.5625 -7.59375 L 2.5625 -4.625 L 5.578125 -4.625 L 5.578125 -7.59375 L 7.1875 -7.59375 Z M 7.1875 0 "/></g></g></g><g fill="#9ca3af" fill-opacity="1"><g transform="translate(45.571173, 18.87097)"><g><path d="M 3.203125 -5.921875 C 3.984375 -5.921875 4.582031 -5.75 5 -5.40625 C 5.414062 -5.070312 5.625 -4.5625 5.625 -3.875 L 5.625 0 L 4.515625 0 L 4.21875 -0.796875 L 4.171875 -0.796875 C 4.003906 -0.585938 3.832031 -0.414062 3.65625 -0.28125 C 3.488281 -0.144531 3.289062 -0.046875 3.0625 0.015625 C 2.84375 0.078125 2.570312 0.109375 2.25 0.109375 C 1.90625 0.109375 1.597656 0.0390625 1.328125 -0.09375 C 1.054688 -0.226562 0.84375 -0.429688 0.6875 -0.703125 C 0.53125 -0.972656 0.453125 -1.316406 0.453125 -1.734375 C 0.453125 -2.347656 0.664062 -2.800781 1.09375 -3.09375 C 1.53125 -3.382812 2.179688 -3.546875 3.046875 -3.578125 L 4.046875 -3.609375 L 4.046875 -3.875 C 4.046875 -4.175781 3.96875 -4.394531 3.8125 -4.53125 C 3.65625 -4.675781 3.4375 -4.75 3.15625 -4.75 C 2.875 -4.75 2.597656 -4.707031 2.328125 -4.625 C 2.054688 -4.550781 1.785156 -4.453125 1.515625 -4.328125 L 0.984375 -5.40625 C 1.296875 -5.5625 1.640625 -5.6875 2.015625 -5.78125 C 2.398438 -5.875 2.796875 -5.921875 3.203125 -5.921875 Z M 4.046875 -2.6875 L 3.4375 -2.671875 C 2.925781 -2.660156 2.570312 -2.566406 2.375 -2.390625 C 2.175781 -2.222656 2.078125 -2 2.078125 -1.71875 C 2.078125 -1.476562 2.144531 -1.304688 2.28125 -1.203125 C 2.425781 -1.109375 2.613281 -1.0625 2.84375 -1.0625 C 3.175781 -1.0625 3.457031 -1.160156 3.6875 -1.359375 C 3.925781 -1.554688 4.046875 -1.84375 4.046875 -2.21875 Z M 4.046875 -2.6875 "/></g></g></g><g fill="#9ca3af" fill-opacity="1"><g transform="translate(51.996325, 18.87097)"><g><path d="M 4.078125 -5.921875 C 4.148438 -5.921875 4.238281 -5.914062 4.34375 -5.90625 C 4.457031 -5.894531 4.546875 -5.882812 4.609375 -5.875 L 4.484375 -4.390625 C 4.429688 -4.398438 4.359375 -4.410156 4.265625 -4.421875 C 4.171875 -4.429688 4.085938 -4.4375 4.015625 -4.4375 C 3.816406 -4.4375 3.617188 -4.410156 3.421875 -4.359375 C 3.234375 -4.304688 3.0625 -4.222656 2.90625 -4.109375 C 2.757812 -3.992188 2.640625 -3.835938 2.546875 -3.640625 C 2.460938 -3.453125 2.421875 -3.222656 2.421875 -2.953125 L 2.421875 0 L 0.828125 0 L 0.828125 -5.8125 L 2.03125 -5.8125 L 2.265625 -4.828125 L 2.34375 -4.828125 C 2.457031 -5.023438 2.597656 -5.207031 2.765625 -5.375 C 2.941406 -5.539062 3.140625 -5.671875 3.359375 -5.765625 C 3.578125 -5.867188 3.816406 -5.921875 4.078125 -5.921875 Z M 4.078125 -5.921875 "/></g></g></g><g fill="#9ca3af" fill-opacity="1"><g transform="translate(56.826876, 18.87097)"><g><path d="M 2.671875 0.109375 C 2.023438 0.109375 1.5 -0.144531 1.09375 -0.65625 C 0.6875 -1.164062 0.484375 -1.910156 0.484375 -2.890625 C 0.484375 -3.890625 0.6875 -4.644531 1.09375 -5.15625 C 1.507812 -5.664062 2.050781 -5.921875 2.71875 -5.921875 C 2.988281 -5.921875 3.226562 -5.878906 3.4375 -5.796875 C 3.65625 -5.722656 3.835938 -5.625 3.984375 -5.5 C 4.140625 -5.375 4.273438 -5.226562 4.390625 -5.0625 L 4.4375 -5.0625 C 4.414062 -5.175781 4.390625 -5.335938 4.359375 -5.546875 C 4.328125 -5.765625 4.3125 -5.988281 4.3125 -6.21875 L 4.3125 -8.078125 L 5.90625 -8.078125 L 5.90625 0 L 4.6875 0 L 4.390625 -0.75 L 4.3125 -0.75 C 4.21875 -0.59375 4.09375 -0.445312 3.9375 -0.3125 C 3.789062 -0.1875 3.613281 -0.0820312 3.40625 0 C 3.195312 0.0703125 2.953125 0.109375 2.671875 0.109375 Z M 3.21875 -1.15625 C 3.65625 -1.15625 3.960938 -1.285156 4.140625 -1.546875 C 4.316406 -1.804688 4.410156 -2.195312 4.421875 -2.71875 L 4.421875 -2.890625 C 4.421875 -3.453125 4.332031 -3.878906 4.15625 -4.171875 C 3.988281 -4.472656 3.671875 -4.625 3.203125 -4.625 C 2.847656 -4.625 2.570312 -4.472656 2.375 -4.171875 C 2.175781 -3.867188 2.078125 -3.4375 2.078125 -2.875 C 2.078125 -2.300781 2.175781 -1.867188 2.375 -1.578125 C 2.582031 -1.296875 2.863281 -1.15625 3.21875 -1.15625 Z M 3.21875 -1.15625 "/></g></g></g><g fill="#9ca3af" fill-opacity="1"><g transform="translate(63.558483, 18.87097)"><g><path d="M 2.421875 -8.078125 L 2.421875 -6.4375 C 2.421875 -6.144531 2.410156 -5.867188 2.390625 -5.609375 C 2.367188 -5.359375 2.351562 -5.175781 2.34375 -5.0625 L 2.421875 -5.0625 C 2.546875 -5.257812 2.691406 -5.421875 2.859375 -5.546875 C 3.035156 -5.671875 3.226562 -5.765625 3.4375 -5.828125 C 3.644531 -5.890625 3.867188 -5.921875 4.109375 -5.921875 C 4.523438 -5.921875 4.890625 -5.84375 5.203125 -5.6875 C 5.515625 -5.539062 5.753906 -5.3125 5.921875 -5 C 6.097656 -4.6875 6.1875 -4.28125 6.1875 -3.78125 L 6.1875 0 L 4.609375 0 L 4.609375 -3.390625 C 4.609375 -3.804688 4.53125 -4.117188 4.375 -4.328125 C 4.226562 -4.546875 3.992188 -4.65625 3.671875 -4.65625 C 3.347656 -4.65625 3.09375 -4.578125 2.90625 -4.421875 C 2.726562 -4.273438 2.601562 -4.054688 2.53125 -3.765625 C 2.457031 -3.484375 2.421875 -3.140625 2.421875 -2.734375 L 2.421875 0 L 0.828125 0 L 0.828125 -8.078125 Z M 2.421875 -8.078125 "/></g></g></g><g fill="#9ca3af" fill-opacity="1"><g transform="translate(70.549797, 18.87097)"><g><path d="M 3.203125 -5.921875 C 3.984375 -5.921875 4.582031 -5.75 5 -5.40625 C 5.414062 -5.070312 5.625 -4.5625 5.625 -3.875 L 5.625 0 L 4.515625 0 L 4.21875 -0.796875 L 4.171875 -0.796875 C 4.003906 -0.585938 3.832031 -0.414062 3.65625 -0.28125 C 3.488281 -0.144531 3.289062 -0.046875 3.0625 0.015625 C 2.84375 0.078125 2.570312 0.109375 2.25 0.109375 C 1.90625 0.109375 1.597656 0.0390625 1.328125 -0.09375 C 1.054688 -0.226562 0.84375 -0.429688 0.6875 -0.703125 C 0.53125 -0.972656 0.453125 -1.316406 0.453125 -1.734375 C 0.453125 -2.347656 0.664062 -2.800781 1.09375 -3.09375 C 1.53125 -3.382812 2.179688 -3.546875 3.046875 -3.578125 L 4.046875 -3.609375 L 4.046875 -3.875 C 4.046875 -4.175781 3.96875 -4.394531 3.8125 -4.53125 C 3.65625 -4.675781 3.4375 -4.75 3.15625 -4.75 C 2.875 -4.75 2.597656 -4.707031 2.328125 -4.625 C 2.054688 -4.550781 1.785156 -4.453125 1.515625 -4.328125 L 0.984375 -5.40625 C 1.296875 -5.5625 1.640625 -5.6875 2.015625 -5.78125 C 2.398438 -5.875 2.796875 -5.921875 3.203125 -5.921875 Z M 4.046875 -2.6875 L 3.4375 -2.671875 C 2.925781 -2.660156 2.570312 -2.566406 2.375 -2.390625 C 2.175781 -2.222656 2.078125 -2 2.078125 -1.71875 C 2.078125 -1.476562 2.144531 -1.304688 2.28125 -1.203125 C 2.425781 -1.109375 2.613281 -1.0625 2.84375 -1.0625 C 3.175781 -1.0625 3.457031 -1.160156 3.6875 -1.359375 C 3.925781 -1.554688 4.046875 -1.84375 4.046875 -2.21875 Z M 4.046875 -2.6875 "/></g></g></g><g fill="#9ca3af" fill-opacity="1"><g transform="translate(76.974949, 18.87097)"><g><path d="M 3.28125 -1.15625 C 3.445312 -1.15625 3.613281 -1.171875 3.78125 -1.203125 C 3.945312 -1.242188 4.113281 -1.289062 4.28125 -1.34375 L 4.28125 -0.15625 C 4.101562 -0.0820312 3.890625 -0.0195312 3.640625 0.03125 C 3.390625 0.0820312 3.117188 0.109375 2.828125 0.109375 C 2.472656 0.109375 2.15625 0.0507812 1.875 -0.0625 C 1.601562 -0.175781 1.390625 -0.367188 1.234375 -0.640625 C 1.078125 -0.921875 1 -1.3125 1 -1.8125 L 1 -4.625 L 0.25 -4.625 L 0.25 -5.296875 L 1.109375 -5.8125 L 1.578125 -7.046875 L 2.59375 -7.046875 L 2.59375 -5.8125 L 4.21875 -5.8125 L 4.21875 -4.625 L 2.59375 -4.625 L 2.59375 -1.8125 C 2.59375 -1.59375 2.65625 -1.425781 2.78125 -1.3125 C 2.90625 -1.207031 3.070312 -1.15625 3.28125 -1.15625 Z M 3.28125 -1.15625 "/></g></g></g></svg>