<svg xmlns="http://www.w3.org/2000/svg" viewBox="0 0 496.82 56.69"><defs><style>.cls-1{fill:#1a56db;}.cls-2{fill:#111827;}.cls-3{fill:#fff;}</style></defs><g id="Calque_2" data-name="Calque 2"><g id="Logo_Composé_1" data-name="Logo Composé 1"><g id="LC1_Blanc_Bleu" data-name="LC1 Blanc Bleu"><path class="cls-1" d="M75.15,56.69,51.55,28.35,75.15,0H89.87L66.27,28.35l23.6,28.34Zm-60.43,0,23.6-28.34L14.72,0H0L23.6,28.35,0,56.69Z"/><rect class="cls-2" x="38.32" y="8.47" width="13.23" height="39.76"/><rect class="cls-3" x="104.04" y="14.17" width="6.62" height="28.35"/><polygon class="cls-3" points="131.35 42.52 120.16 24.59 120.16 42.52 114.06 42.52 114.06 14.17 121.02 14.17 131.22 31.21 131.22 14.17 137.41 14.17 137.41 42.52 131.35 42.52"/><polygon class="cls-3" points="168.94 42.52 168.94 14.17 190.71 14.17 190.71 19.68 175.34 19.68 175.34 24.93 188.79 24.93 188.79 30.48 175.34 30.48 175.34 36.93 190.71 36.93 190.71 42.52 168.94 42.52"/><polygon class="cls-3" points="218.8 42.52 218.8 14.17 240.57 14.17 240.57 19.68 225.21 19.68 225.21 24.93 238.65 24.93 238.65 30.48 225.21 30.48 225.21 36.93 240.57 36.93 240.57 42.52 218.8 42.52"/><polygon class="cls-3" points="261.18 42.52 250 24.59 250 42.52 243.89 42.52 243.89 14.17 250.85 14.17 261.05 31.21 261.05 14.17 267.24 14.17 267.24 42.52 261.18 42.52"/><polygon class="cls-3" points="298.77 42.52 298.77 14.17 320.54 14.17 320.54 19.68 305.17 19.68 305.17 24.93 318.62 24.93 318.62 30.48 305.17 30.48 305.17 36.93 320.54 36.93 320.54 42.52 298.77 42.52"/><polygon class="cls-3" points="341.23 42.52 330.05 24.59 330.05 42.52 323.94 42.52 323.94 14.17 330.9 14.17 341.11 31.21 341.11 14.17 347.3 14.17 347.3 42.52 341.23 42.52"/><polygon class="cls-3" points="382.47 42.52 382.47 14.17 404.25 14.17 404.25 19.68 388.88 19.68 388.88 24.93 402.33 24.93 402.33 30.48 388.88 30.48 388.88 36.93 404.25 36.93 404.25 42.52 382.47 42.52"/><path class="cls-3" d="M372.43,33a8.54,8.54,0,1,1,0-9.31h7.21a15.16,15.16,0,1,0,0,9.31Z"/><path class="cls-3" d="M151.93,14.17H140.81V42.52h11.12a14.18,14.18,0,0,0,0-28.35Zm0,21.73H147V20.8h4.93a7.55,7.55,0,0,1,0,15.1Z"/><path class="cls-3" d="M194.11,42.52V14.17h12.55c5.72,0,9.31,3.59,9.31,9.1s-3.59,9-9.31,9h-5.93V42.52Zm11.83-15.58c2.81,0,4.22-1.49,4.22-3.72s-1.41-3.58-4.22-3.58h-5.21v7.3Z"/><path class="cls-3" d="M281.76,14.17H270.64V42.52h11.12a14.18,14.18,0,1,0,0-28.35Zm0,21.73h-4.93V20.8h4.93a7.55,7.55,0,1,1,0,15.1Z"/><polygon class="cls-1" points="477.78 42.52 496.82 14.17 489.86 14.17 477.91 31.21 477.91 14.17 471.72 14.17 471.72 42.52 477.78 42.52"/><path class="cls-1" d="M446.55,19.64V14.17h21.77v5.47Zm21.77,17.29v5.59H446.55V24.93H466.4v5.55H453v6.45Z"/><path class="cls-1" d="M443.71,28.35a14.17,14.17,0,0,1-14.17,14.17H418.42V35.9h11.12a7.55,7.55,0,0,0,0-15.1H418.42V14.17h11.12A14.17,14.17,0,0,1,443.71,28.35Z"/></g></g></g></svg>