<svg xmlns="http://www.w3.org/2000/svg" xmlns:xlink="http://www.w3.org/1999/xlink" width="115" zoomAndPan="magnify" viewBox="0 0 86.25 30.000001" height="40" preserveAspectRatio="xMidYMid meet" version="1.0"><defs><clipPath id="id1"><path d="M 1.027344 1 L 30.785156 1 L 30.785156 28 L 1.027344 28 Z M 1.027344 1 " clip-rule="nonzero"/></clipPath></defs><g clip-path="url(#id1)"><path fill="#9ca3ae" d="M 25.476562 9.820312 C 25.167969 9.714844 24.851562 9.613281 24.519531 9.515625 C 24.574219 9.296875 24.625 9.078125 24.667969 8.863281 C 25.390625 5.347656 24.921875 2.511719 23.304688 1.578125 C 21.753906 0.683594 19.21875 1.617188 16.660156 3.847656 C 16.414062 4.0625 16.167969 4.289062 15.921875 4.527344 C 15.757812 4.371094 15.59375 4.21875 15.429688 4.070312 C 12.746094 1.6875 10.058594 0.683594 8.445312 1.617188 C 6.894531 2.515625 6.4375 5.179688 7.089844 8.515625 C 7.152344 8.835938 7.226562 9.164062 7.308594 9.5 C 6.929688 9.605469 6.558594 9.722656 6.210938 9.84375 C 3.0625 10.941406 1.054688 12.664062 1.054688 14.449219 C 1.054688 16.289062 3.210938 18.140625 6.488281 19.261719 C 6.746094 19.351562 7.015625 19.433594 7.289062 19.511719 C 7.199219 19.875 7.121094 20.226562 7.058594 20.574219 C 6.4375 23.851562 6.921875 26.453125 8.464844 27.34375 C 10.058594 28.265625 12.734375 27.316406 15.34375 25.035156 C 15.546875 24.855469 15.753906 24.664062 15.960938 24.464844 C 16.230469 24.722656 16.5 24.96875 16.765625 25.199219 C 19.289062 27.375 21.78125 28.25 23.324219 27.359375 C 24.917969 26.433594 25.4375 23.640625 24.761719 20.238281 C 24.710938 19.980469 24.652344 19.714844 24.585938 19.445312 C 24.773438 19.390625 24.957031 19.332031 25.136719 19.273438 C 28.542969 18.140625 30.757812 16.316406 30.757812 14.449219 C 30.757812 12.65625 28.683594 10.925781 25.476562 9.820312 Z M 24.738281 18.066406 C 24.578125 18.121094 24.410156 18.171875 24.242188 18.222656 C 23.863281 17.03125 23.355469 15.761719 22.734375 14.453125 C 23.328125 13.175781 23.816406 11.925781 24.179688 10.742188 C 24.484375 10.828125 24.78125 10.921875 25.0625 11.019531 C 27.8125 11.96875 29.488281 13.367188 29.488281 14.449219 C 29.488281 15.597656 27.679688 17.089844 24.738281 18.066406 Z M 23.519531 20.484375 C 23.816406 21.988281 23.859375 23.347656 23.660156 24.410156 C 23.484375 25.367188 23.128906 26.003906 22.6875 26.257812 C 21.753906 26.800781 19.75 26.09375 17.59375 24.234375 C 17.34375 24.019531 17.09375 23.792969 16.847656 23.554688 C 17.683594 22.636719 18.519531 21.570312 19.335938 20.386719 C 20.769531 20.261719 22.128906 20.050781 23.359375 19.765625 C 23.417969 20.011719 23.472656 20.25 23.519531 20.484375 Z M 11.183594 26.164062 C 10.269531 26.488281 9.539062 26.496094 9.097656 26.242188 C 8.164062 25.703125 7.773438 23.613281 8.304688 20.8125 C 8.363281 20.492188 8.4375 20.160156 8.519531 19.824219 C 9.738281 20.09375 11.085938 20.289062 12.523438 20.402344 C 13.347656 21.5625 14.207031 22.625 15.074219 23.558594 C 14.882812 23.742188 14.695312 23.914062 14.507812 24.078125 C 13.355469 25.089844 12.199219 25.804688 11.183594 26.164062 Z M 6.898438 18.058594 C 5.449219 17.5625 4.253906 16.917969 3.433594 16.214844 C 2.695312 15.585938 2.324219 14.957031 2.324219 14.449219 C 2.324219 13.367188 3.9375 11.984375 6.628906 11.046875 C 6.953125 10.929688 7.296875 10.824219 7.648438 10.722656 C 8.019531 11.933594 8.507812 13.199219 9.097656 14.480469 C 8.5 15.777344 8.007812 17.0625 7.632812 18.289062 C 7.378906 18.214844 7.132812 18.140625 6.898438 18.058594 Z M 8.335938 8.269531 C 7.777344 5.414062 8.148438 3.257812 9.078125 2.71875 C 10.074219 2.140625 12.269531 2.964844 14.585938 5.023438 C 14.734375 5.152344 14.882812 5.292969 15.03125 5.433594 C 14.167969 6.363281 13.316406 7.417969 12.503906 8.570312 C 11.105469 8.699219 9.769531 8.90625 8.539062 9.1875 C 8.460938 8.875 8.394531 8.570312 8.335938 8.269531 Z M 21.144531 11.4375 C 20.851562 10.929688 20.550781 10.433594 20.242188 9.949219 C 21.191406 10.070312 22.097656 10.230469 22.953125 10.425781 C 22.695312 11.246094 22.378906 12.105469 22 12.984375 C 21.730469 12.472656 21.445312 11.957031 21.144531 11.4375 Z M 15.921875 6.34375 C 16.507812 6.976562 17.09375 7.6875 17.667969 8.453125 C 17.089844 8.425781 16.5 8.414062 15.90625 8.414062 C 15.320312 8.414062 14.738281 8.425781 14.160156 8.453125 C 14.734375 7.691406 15.328125 6.984375 15.921875 6.34375 Z M 10.664062 11.445312 C 10.371094 11.957031 10.089844 12.46875 9.824219 12.984375 C 9.457031 12.105469 9.140625 11.242188 8.882812 10.410156 C 9.726562 10.222656 10.632812 10.066406 11.574219 9.949219 C 11.261719 10.433594 10.957031 10.933594 10.664062 11.445312 Z M 11.601562 19.039062 C 10.628906 18.929688 9.710938 18.78125 8.863281 18.597656 C 9.125 17.75 9.449219 16.871094 9.828125 15.972656 C 10.09375 16.488281 10.371094 17 10.667969 17.511719 C 10.96875 18.03125 11.28125 18.542969 11.601562 19.039062 Z M 15.957031 22.644531 C 15.355469 21.992188 14.753906 21.273438 14.167969 20.503906 C 14.738281 20.523438 15.316406 20.535156 15.90625 20.535156 C 16.511719 20.535156 17.113281 20.523438 17.699219 20.496094 C 17.121094 21.28125 16.539062 22.003906 15.957031 22.644531 Z M 22.011719 15.925781 C 22.410156 16.832031 22.746094 17.710938 23.011719 18.542969 C 22.148438 18.738281 21.21875 18.898438 20.238281 19.015625 C 20.546875 18.527344 20.851562 18.023438 21.152344 17.503906 C 21.453125 16.976562 21.742188 16.453125 22.011719 15.925781 Z M 20.050781 16.867188 C 19.585938 17.675781 19.109375 18.445312 18.628906 19.167969 C 17.746094 19.234375 16.835938 19.265625 15.90625 19.265625 C 14.984375 19.265625 14.082031 19.238281 13.21875 19.179688 C 12.714844 18.445312 12.226562 17.671875 11.765625 16.875 C 11.304688 16.078125 10.882812 15.277344 10.5 14.480469 C 10.882812 13.679688 11.304688 12.875 11.761719 12.082031 C 12.222656 11.285156 12.703125 10.515625 13.203125 9.785156 C 14.085938 9.71875 14.992188 9.683594 15.90625 9.683594 C 16.828125 9.683594 17.734375 9.71875 18.617188 9.785156 C 19.109375 10.511719 19.585938 11.277344 20.046875 12.074219 C 20.511719 12.878906 20.941406 13.679688 21.328125 14.460938 C 20.941406 15.257812 20.515625 16.0625 20.050781 16.867188 Z M 22.667969 2.679688 C 23.664062 3.253906 24.050781 5.570312 23.425781 8.609375 C 23.386719 8.800781 23.339844 9 23.292969 9.199219 C 22.058594 8.914062 20.722656 8.703125 19.320312 8.570312 C 18.503906 7.40625 17.660156 6.347656 16.808594 5.433594 C 17.039062 5.214844 17.265625 5.003906 17.492188 4.804688 C 19.6875 2.894531 21.738281 2.140625 22.667969 2.679688 Z M 15.90625 11.792969 C 17.371094 11.792969 18.558594 12.980469 18.558594 14.449219 C 18.558594 15.914062 17.371094 17.105469 15.90625 17.105469 C 14.441406 17.105469 13.253906 15.914062 13.253906 14.449219 C 13.253906 12.980469 14.441406 11.792969 15.90625 11.792969 Z M 15.90625 11.792969 " fill-opacity="1" fill-rule="nonzero"/></g><path fill="#9ca3ae" d="M 45.273438 20.136719 L 42.175781 15.492188 C 43.742188 15.351562 45.152344 14.226562 45.152344 12.171875 C 45.152344 10.078125 43.65625 8.738281 41.554688 8.738281 L 36.941406 8.738281 L 36.941406 20.128906 L 38.371094 20.128906 L 38.371094 15.601562 L 40.660156 15.601562 L 43.585938 20.128906 Z M 41.382812 14.363281 L 38.371094 14.363281 L 38.371094 10.007812 L 41.382812 10.007812 C 42.746094 10.007812 43.675781 10.898438 43.675781 12.179688 C 43.675781 13.460938 42.742188 14.363281 41.382812 14.363281 Z M 50.59375 20.339844 C 51.957031 20.339844 53.074219 19.894531 53.902344 19.078125 L 53.28125 18.238281 C 52.625 18.90625 51.664062 19.28125 50.714844 19.28125 C 48.925781 19.28125 47.824219 17.984375 47.71875 16.429688 L 54.453125 16.429688 L 54.453125 16.105469 C 54.453125 13.628906 52.96875 11.683594 50.457031 11.683594 C 48.082031 11.683594 46.359375 13.613281 46.359375 16.003906 C 46.359375 18.582031 48.132812 20.332031 50.59375 20.332031 Z M 53.179688 15.488281 L 47.71875 15.488281 C 47.789062 14.226562 48.667969 12.738281 50.441406 12.738281 C 52.335938 12.738281 53.160156 14.257812 53.179688 15.488281 Z M 63.027344 20.136719 L 63.027344 14.464844 C 63.027344 12.46875 61.566406 11.679688 59.808594 11.679688 C 58.445312 11.679688 57.378906 12.125 56.484375 13.046875 L 57.085938 13.933594 C 57.828125 13.148438 58.636719 12.792969 59.636719 12.792969 C 60.839844 12.792969 61.738281 13.421875 61.738281 14.53125 L 61.738281 16.019531 C 61.066406 15.25 60.117188 14.890625 58.980469 14.890625 C 57.570312 14.890625 56.070312 15.761719 56.070312 17.605469 C 56.070312 19.398438 57.570312 20.339844 58.980469 20.339844 C 60.101562 20.339844 61.046875 19.945312 61.738281 19.195312 L 61.738281 20.132812 Z M 59.445312 19.417969 C 58.242188 19.417969 57.398438 18.667969 57.398438 17.625 C 57.398438 16.566406 58.242188 15.8125 59.445312 15.8125 C 60.359375 15.8125 61.238281 16.15625 61.738281 16.839844 L 61.738281 18.394531 C 61.238281 19.074219 60.359375 19.417969 59.445312 19.417969 Z M 69.269531 20.339844 C 70.785156 20.339844 71.679688 19.726562 72.320312 18.90625 L 71.457031 18.121094 C 70.90625 18.855469 70.199219 19.195312 69.347656 19.195312 C 67.574219 19.195312 66.472656 17.828125 66.472656 16.003906 C 66.472656 14.175781 67.574219 12.828125 69.347656 12.828125 C 70.207031 12.828125 70.914062 13.152344 71.457031 13.902344 L 72.320312 13.117188 C 71.683594 12.296875 70.785156 11.683594 69.269531 11.683594 C 66.792969 11.683594 65.121094 13.5625 65.121094 16.003906 C 65.121094 18.460938 66.792969 20.335938 69.269531 20.335938 Z M 76.226562 20.339844 C 76.984375 20.339844 77.449219 20.117188 77.777344 19.8125 L 77.398438 18.855469 C 77.226562 19.042969 76.890625 19.195312 76.519531 19.195312 C 75.953125 19.195312 75.675781 18.753906 75.675781 18.136719 L 75.675781 13.015625 L 77.363281 13.015625 L 77.363281 11.886719 L 75.675781 11.886719 L 75.675781 9.632812 L 74.386719 9.632812 L 74.386719 11.886719 L 73.007812 11.886719 L 73.007812 13.015625 L 74.386719 13.015625 L 74.386719 18.410156 C 74.386719 19.640625 75.003906 20.339844 76.226562 20.339844 Z M 76.226562 20.339844 " fill-opacity="1" fill-rule="evenodd"/></svg>