<svg xmlns="http://www.w3.org/2000/svg" xmlns:xlink="http://www.w3.org/1999/xlink" width="115" zoomAndPan="magnify" viewBox="0 0 86.25 30.000001" height="40" preserveAspectRatio="xMidYMid meet" version="1.0"><defs><filter x="0%" y="0%" width="100%" height="100%" id="id1"><feColorMatrix values="0 0 0 0 1 0 0 0 0 1 0 0 0 0 1 0 0 0 1 0" color-interpolation-filters="sRGB"/></filter><mask id="id2"><g filter="url(#id1)"><rect x="-8.625" width="103.5" fill="#000000" y="-3" height="36.000001" fill-opacity="0.4471"/></g></mask><clipPath id="id3"><path d="M 0.746094 0 L 14.679688 0 L 14.679688 8.59375 L 0.746094 8.59375 Z M 0.746094 0 " clip-rule="nonzero"/></clipPath><clipPath id="id4"><rect x="0" width="15" y="0" height="9"/></clipPath><mask id="id5"><g filter="url(#id1)"><rect x="-8.625" width="103.5" fill="#000000" y="-3" height="36.000001" fill-opacity="0.6"/></g></mask><clipPath id="id6"><path d="M 0.15625 0 L 14.324219 0 L 14.324219 8.59375 L 0.15625 8.59375 Z M 0.15625 0 " clip-rule="nonzero"/></clipPath><clipPath id="id7"><rect x="0" width="15" y="0" height="9"/></clipPath><mask id="id8"><g filter="url(#id1)"><rect x="-8.625" width="103.5" fill="#000000" y="-3" height="36.000001" fill-opacity="0.8"/></g></mask><clipPath id="id9"><path d="M 0.746094 0 L 10 0 L 10 16.492188 L 0.746094 16.492188 Z M 0.746094 0 " clip-rule="nonzero"/></clipPath><clipPath id="id10"><rect x="0" width="11" y="0" height="17"/></clipPath><mask id="id11"><g filter="url(#id1)"><rect x="-8.625" width="103.5" fill="#000000" y="-3" height="36.000001" fill-opacity="0.4471"/></g></mask><clipPath id="id12"><path d="M 0.15625 0.207031 L 14.324219 0.207031 L 14.324219 8.800781 L 0.15625 8.800781 Z M 0.15625 0.207031 " clip-rule="nonzero"/></clipPath><clipPath id="id13"><rect x="0" width="15" y="0" height="9"/></clipPath><mask id="id14"><g filter="url(#id1)"><rect x="-8.625" width="103.5" fill="#000000" y="-3" height="36.000001" fill-opacity="0.6"/></g></mask><clipPath id="id15"><path d="M 0.746094 0.207031 L 14.679688 0.207031 L 14.679688 8.800781 L 0.746094 8.800781 Z M 0.746094 0.207031 " clip-rule="nonzero"/></clipPath><clipPath id="id16"><rect x="0" width="15" y="0" height="9"/></clipPath><mask id="id17"><g filter="url(#id1)"><rect x="-8.625" width="103.5" fill="#000000" y="-3" height="36.000001" fill-opacity="0.8"/></g></mask><clipPath id="id18"><path d="M 0.800781 0.308594 L 10.324219 0.308594 L 10.324219 16.800781 L 0.800781 16.800781 Z M 0.800781 0.308594 " clip-rule="nonzero"/></clipPath><clipPath id="id19"><rect x="0" width="11" y="0" height="17"/></clipPath></defs><g mask="url(#id2)"><g transform="matrix(1, 0, 0, 1, 4, 0.000000000000005692)"><g clip-path="url(#id4)"><g clip-path="url(#id3)"><path fill="#9ca3af" d="M 14.464844 0.207031 L 9.90625 8.320312 L 0.777344 8.320312 L 5.335938 0.207031 Z M 14.464844 0.207031 " fill-opacity="1" fill-rule="nonzero"/></g></g></g></g><g mask="url(#id5)"><g transform="matrix(1, 0, 0, 1, 9, 0.000000000000005692)"><g clip-path="url(#id7)"><g clip-path="url(#id6)"><path fill="#9ca3af" d="M 4.90625 8.320312 L 14.027344 8.320312 L 9.464844 0.207031 L 0.335938 0.207031 Z M 4.90625 8.320312 " fill-opacity="1" fill-rule="nonzero"/></g></g></g></g><g mask="url(#id8)"><g transform="matrix(1, 0, 0, 1, 4, 0.000000000000005692)"><g clip-path="url(#id10)"><g clip-path="url(#id9)"><path fill="#9ca3af" d="M 5.335938 16.429688 L 9.90625 8.320312 L 5.335938 0.207031 L 0.777344 8.320312 Z M 5.335938 16.429688 " fill-opacity="1" fill-rule="nonzero"/></g></g></g></g><g mask="url(#id11)"><g transform="matrix(1, 0, 0, 1, 9, 20)"><g clip-path="url(#id13)"><g clip-path="url(#id12)"><path fill="#9ca3af" d="M 0.386719 8.597656 L 4.945312 0.484375 L 14.074219 0.484375 L 9.507812 8.597656 Z M 0.386719 8.597656 " fill-opacity="1" fill-rule="nonzero"/></g></g></g></g><g mask="url(#id14)"><g transform="matrix(1, 0, 0, 1, 4, 20)"><g clip-path="url(#id16)"><g clip-path="url(#id15)"><path fill="#9ca3af" d="M 9.945312 0.484375 L 0.824219 0.484375 L 5.386719 8.597656 L 14.507812 8.597656 Z M 9.945312 0.484375 " fill-opacity="1" fill-rule="nonzero"/></g></g></g></g><g mask="url(#id17)"><g transform="matrix(1, 0, 0, 1, 13, 12)"><g clip-path="url(#id19)"><g clip-path="url(#id18)"><path fill="#9ca3af" d="M 5.507812 0.375 L 0.945312 8.484375 L 5.507812 16.597656 L 10.074219 8.484375 Z M 5.507812 0.375 " fill-opacity="1" fill-rule="nonzero"/></g></g></g></g><path fill="#9ca3af" d="M 29.75 13.789062 C 29.75 14.082031 29.878906 14.300781 30.117188 14.449219 C 30.355469 14.59375 30.644531 14.722656 31.011719 14.8125 C 31.359375 14.902344 31.742188 14.996094 32.160156 15.066406 C 32.582031 15.140625 32.964844 15.25 33.3125 15.378906 C 33.660156 15.523438 33.949219 15.707031 34.207031 15.960938 C 34.445312 16.199219 34.570312 16.546875 34.570312 16.964844 C 34.570312 17.332031 34.480469 17.640625 34.316406 17.898438 C 34.152344 18.152344 33.933594 18.371094 33.675781 18.535156 C 33.421875 18.699219 33.128906 18.828125 32.820312 18.921875 C 32.507812 19.011719 32.179688 19.046875 31.886719 19.046875 C 31.558594 19.046875 31.230469 19.011719 30.902344 18.9375 C 30.574219 18.867188 30.28125 18.753906 30.027344 18.589844 C 29.769531 18.425781 29.550781 18.226562 29.386719 17.972656 C 29.222656 17.714844 29.132812 17.386719 29.132812 17.003906 C 29.132812 16.875 29.148438 16.765625 29.1875 16.675781 C 29.222656 16.582031 29.3125 16.546875 29.476562 16.546875 C 29.550781 16.546875 29.605469 16.582031 29.640625 16.65625 C 29.679688 16.730469 29.695312 16.800781 29.695312 16.855469 C 29.695312 17.1875 29.75 17.460938 29.878906 17.679688 C 30.007812 17.898438 30.152344 18.0625 30.371094 18.171875 C 30.574219 18.300781 30.8125 18.371094 31.085938 18.425781 C 31.359375 18.480469 31.613281 18.5 31.90625 18.5 C 32.125 18.5 32.363281 18.464844 32.617188 18.410156 C 32.875 18.355469 33.09375 18.261719 33.3125 18.136719 C 33.511719 18.007812 33.695312 17.859375 33.824219 17.660156 C 33.96875 17.460938 34.023438 17.242188 34.023438 16.964844 C 34.023438 16.636719 33.894531 16.382812 33.660156 16.199219 C 33.421875 16.015625 33.128906 15.871094 32.765625 15.78125 C 32.417969 15.671875 32.035156 15.578125 31.613281 15.523438 C 31.195312 15.453125 30.8125 15.359375 30.464844 15.230469 C 30.117188 15.105469 29.824219 14.941406 29.570312 14.722656 C 29.332031 14.503906 29.203125 14.210938 29.203125 13.828125 C 29.203125 13.496094 29.296875 13.222656 29.460938 13.003906 C 29.625 12.785156 29.84375 12.621094 30.082031 12.492188 C 30.335938 12.367188 30.609375 12.273438 30.902344 12.238281 C 31.195312 12.183594 31.484375 12.164062 31.742188 12.164062 C 32.050781 12.164062 32.378906 12.203125 32.691406 12.257812 C 33 12.328125 33.292969 12.421875 33.53125 12.566406 C 33.785156 12.714844 33.988281 12.914062 34.152344 13.167969 C 34.316406 13.425781 34.390625 13.734375 34.390625 14.101562 C 34.390625 14.171875 34.351562 14.246094 34.296875 14.28125 C 34.226562 14.335938 34.171875 14.355469 34.097656 14.355469 C 34.003906 14.355469 33.933594 14.320312 33.894531 14.265625 C 33.859375 14.191406 33.839844 14.136719 33.839844 14.0625 C 33.785156 13.773438 33.695312 13.535156 33.550781 13.351562 C 33.402344 13.167969 33.238281 13.042969 33.054688 12.949219 C 32.855469 12.859375 32.65625 12.785156 32.4375 12.769531 C 32.214844 12.730469 31.980469 12.714844 31.761719 12.714844 C 31.578125 12.714844 31.375 12.730469 31.140625 12.75 C 30.921875 12.769531 30.703125 12.824219 30.5 12.914062 C 30.300781 12.988281 30.117188 13.097656 29.988281 13.242188 C 29.824219 13.371094 29.75 13.550781 29.75 13.789062 " fill-opacity="1" fill-rule="nonzero"/><path fill="#9ca3af" d="M 40.25 12.054688 C 40.707031 12.054688 41.144531 12.148438 41.546875 12.347656 C 41.945312 12.546875 42.292969 12.804688 42.566406 13.113281 C 42.859375 13.425781 43.078125 13.808594 43.242188 14.226562 C 43.40625 14.648438 43.480469 15.085938 43.480469 15.523438 C 43.480469 15.980469 43.40625 16.417969 43.242188 16.820312 C 43.078125 17.242188 42.859375 17.605469 42.566406 17.933594 C 42.277344 18.246094 41.945312 18.5 41.546875 18.699219 C 41.144531 18.902344 40.722656 18.992188 40.25 18.992188 C 39.792969 18.992188 39.355469 18.902344 38.972656 18.699219 C 38.589844 18.5 38.242188 18.246094 37.949219 17.933594 C 37.65625 17.625 37.4375 17.242188 37.273438 16.820312 C 37.109375 16.402344 37.035156 15.960938 37.035156 15.523438 C 37.035156 15.066406 37.109375 14.628906 37.273438 14.226562 C 37.4375 13.808594 37.65625 13.441406 37.949219 13.113281 C 38.242188 12.804688 38.570312 12.546875 38.972656 12.347656 C 39.355469 12.164062 39.792969 12.054688 40.25 12.054688 M 40.25 18.445312 C 40.652344 18.445312 41.015625 18.355469 41.328125 18.191406 C 41.65625 18.027344 41.929688 17.804688 42.167969 17.550781 C 42.402344 17.277344 42.585938 16.984375 42.695312 16.621094 C 42.824219 16.273438 42.878906 15.90625 42.878906 15.542969 C 42.878906 15.175781 42.824219 14.8125 42.695312 14.464844 C 42.566406 14.117188 42.386719 13.808594 42.167969 13.550781 C 41.929688 13.277344 41.65625 13.078125 41.328125 12.914062 C 40.996094 12.75 40.632812 12.65625 40.25 12.65625 C 39.867188 12.65625 39.5 12.75 39.191406 12.914062 C 38.863281 13.078125 38.589844 13.296875 38.351562 13.550781 C 38.113281 13.828125 37.929688 14.117188 37.804688 14.464844 C 37.675781 14.8125 37.601562 15.175781 37.601562 15.542969 C 37.601562 15.90625 37.675781 16.273438 37.804688 16.621094 C 37.929688 16.964844 38.113281 17.277344 38.351562 17.550781 C 38.589844 17.824219 38.863281 18.027344 39.191406 18.191406 C 39.519531 18.355469 39.867188 18.445312 40.25 18.445312 " fill-opacity="1" fill-rule="nonzero"/><path fill="#9ca3af" d="M 46.402344 6.671875 C 46.476562 6.671875 46.546875 6.707031 46.601562 6.761719 C 46.65625 6.816406 46.675781 6.890625 46.675781 6.945312 L 46.675781 18.609375 C 46.675781 18.683594 46.65625 18.738281 46.601562 18.792969 C 46.546875 18.847656 46.476562 18.882812 46.402344 18.882812 C 46.328125 18.882812 46.253906 18.847656 46.199219 18.792969 C 46.144531 18.738281 46.128906 18.664062 46.128906 18.609375 L 46.128906 6.945312 C 46.128906 6.871094 46.144531 6.816406 46.199219 6.761719 C 46.253906 6.6875 46.308594 6.671875 46.402344 6.671875 " fill-opacity="1" fill-rule="nonzero"/><path fill="#9ca3af" d="M 49.960938 10.304688 C 49.960938 10.429688 49.90625 10.523438 49.816406 10.613281 C 49.722656 10.703125 49.613281 10.742188 49.503906 10.742188 C 49.378906 10.742188 49.269531 10.703125 49.175781 10.613281 C 49.085938 10.523438 49.050781 10.429688 49.050781 10.304688 C 49.050781 10.175781 49.085938 10.066406 49.175781 9.972656 C 49.269531 9.882812 49.378906 9.847656 49.503906 9.847656 C 49.632812 9.847656 49.722656 9.882812 49.816406 9.972656 C 49.90625 10.066406 49.960938 10.175781 49.960938 10.304688 M 49.488281 12.257812 C 49.558594 12.257812 49.613281 12.292969 49.667969 12.347656 C 49.722656 12.402344 49.761719 12.476562 49.761719 12.53125 L 49.761719 18.589844 C 49.761719 18.664062 49.722656 18.71875 49.667969 18.773438 C 49.613281 18.828125 49.542969 18.867188 49.488281 18.867188 C 49.414062 18.867188 49.339844 18.828125 49.285156 18.773438 C 49.230469 18.71875 49.214844 18.644531 49.214844 18.589844 L 49.214844 12.53125 C 49.214844 12.457031 49.230469 12.402344 49.285156 12.347656 C 49.339844 12.292969 49.414062 12.257812 49.488281 12.257812 " fill-opacity="1" fill-rule="nonzero"/><path fill="#9ca3af" d="M 58.578125 6.652344 C 58.652344 6.652344 58.726562 6.6875 58.78125 6.742188 C 58.835938 6.796875 58.851562 6.871094 58.851562 6.925781 L 58.851562 18.574219 C 58.851562 18.753906 58.761719 18.847656 58.578125 18.847656 C 58.394531 18.847656 58.304688 18.753906 58.304688 18.574219 L 58.304688 17.296875 C 58.03125 17.804688 57.648438 18.226562 57.15625 18.554688 C 56.660156 18.867188 56.113281 19.03125 55.53125 19.03125 C 55.074219 19.03125 54.636719 18.9375 54.253906 18.738281 C 53.867188 18.535156 53.523438 18.28125 53.230469 17.972656 C 52.9375 17.660156 52.71875 17.277344 52.554688 16.855469 C 52.390625 16.4375 52.316406 16 52.316406 15.5625 C 52.316406 15.105469 52.390625 14.667969 52.554688 14.265625 C 52.71875 13.84375 52.9375 13.480469 53.230469 13.152344 C 53.523438 12.839844 53.851562 12.585938 54.253906 12.382812 C 54.636719 12.183594 55.074219 12.09375 55.53125 12.09375 C 56.132812 12.09375 56.679688 12.257812 57.15625 12.585938 C 57.648438 12.914062 58.03125 13.332031 58.304688 13.84375 L 58.304688 6.90625 C 58.304688 6.835938 58.324219 6.78125 58.378906 6.726562 C 58.433594 6.671875 58.503906 6.652344 58.578125 6.652344 M 55.511719 18.480469 C 55.914062 18.480469 56.277344 18.390625 56.589844 18.226562 C 56.917969 18.0625 57.191406 17.84375 57.429688 17.585938 C 57.667969 17.3125 57.847656 17.019531 57.957031 16.65625 C 58.085938 16.308594 58.140625 15.945312 58.140625 15.578125 C 58.140625 15.214844 58.085938 14.847656 57.957031 14.503906 C 57.832031 14.15625 57.648438 13.84375 57.429688 13.570312 C 57.191406 13.296875 56.917969 13.097656 56.589844 12.933594 C 56.261719 12.769531 55.894531 12.675781 55.511719 12.675781 C 55.128906 12.675781 54.761719 12.769531 54.453125 12.933594 C 54.125 13.097656 53.851562 13.316406 53.613281 13.570312 C 53.375 13.84375 53.191406 14.136719 53.066406 14.503906 C 52.9375 14.847656 52.863281 15.214844 52.863281 15.578125 C 52.863281 15.945312 52.9375 16.308594 53.066406 16.65625 C 53.191406 17.003906 53.375 17.3125 53.613281 17.585938 C 53.851562 17.859375 54.125 18.0625 54.453125 18.226562 C 54.761719 18.390625 55.128906 18.480469 55.511719 18.480469 " fill-opacity="1" fill-rule="nonzero"/><path fill="#9ca3af" d="M 62.230469 10.304688 C 62.230469 10.429688 62.175781 10.523438 62.085938 10.613281 C 61.992188 10.703125 61.882812 10.742188 61.773438 10.742188 C 61.644531 10.742188 61.535156 10.703125 61.445312 10.613281 C 61.355469 10.523438 61.316406 10.429688 61.316406 10.304688 C 61.316406 10.175781 61.355469 10.066406 61.445312 9.972656 C 61.535156 9.882812 61.644531 9.847656 61.773438 9.847656 C 61.902344 9.847656 61.992188 9.882812 62.085938 9.972656 C 62.195312 10.066406 62.230469 10.175781 62.230469 10.304688 M 61.773438 12.257812 C 61.847656 12.257812 61.902344 12.292969 61.957031 12.347656 C 62.011719 12.402344 62.046875 12.476562 62.046875 12.53125 L 62.046875 18.589844 C 62.046875 18.664062 62.011719 18.71875 61.957031 18.773438 C 61.902344 18.828125 61.828125 18.867188 61.773438 18.867188 C 61.699219 18.867188 61.628906 18.828125 61.574219 18.773438 C 61.519531 18.71875 61.5 18.644531 61.5 18.589844 L 61.5 12.53125 C 61.5 12.457031 61.519531 12.402344 61.574219 12.347656 C 61.628906 12.292969 61.699219 12.257812 61.773438 12.257812 " fill-opacity="1" fill-rule="nonzero"/><path fill="#9ca3af" d="M 68.070312 12.21875 C 68.144531 12.21875 68.21875 12.257812 68.273438 12.3125 C 68.328125 12.367188 68.347656 12.4375 68.347656 12.492188 C 68.347656 12.675781 68.253906 12.769531 68.070312 12.769531 L 66.574219 12.769531 L 66.574219 18.628906 C 66.574219 18.699219 66.558594 18.753906 66.503906 18.8125 C 66.449219 18.867188 66.375 18.902344 66.300781 18.902344 C 66.226562 18.902344 66.15625 18.867188 66.101562 18.8125 C 66.046875 18.753906 66.027344 18.683594 66.027344 18.628906 L 66.027344 12.769531 L 64.585938 12.769531 C 64.402344 12.769531 64.3125 12.675781 64.3125 12.492188 C 64.3125 12.421875 64.328125 12.367188 64.382812 12.3125 C 64.4375 12.257812 64.511719 12.21875 64.585938 12.21875 L 66.027344 12.21875 L 66.027344 10.066406 C 66.027344 9.882812 66.117188 9.792969 66.300781 9.792969 C 66.484375 9.792969 66.574219 9.882812 66.574219 10.066406 L 66.574219 12.21875 Z M 68.070312 12.21875 " fill-opacity="1" fill-rule="nonzero"/><path fill="#9ca3af" d="M 75.792969 12.203125 C 75.976562 12.203125 76.070312 12.292969 76.070312 12.476562 C 76.070312 12.492188 76.015625 12.640625 75.902344 12.914062 C 75.792969 13.1875 75.667969 13.550781 75.503906 13.992188 C 75.339844 14.429688 75.136719 14.941406 74.917969 15.507812 C 74.699219 16.070312 74.460938 16.65625 74.226562 17.277344 C 73.988281 17.878906 73.75 18.480469 73.53125 19.066406 C 73.3125 19.648438 73.09375 20.179688 72.910156 20.671875 C 72.710938 21.164062 72.5625 21.566406 72.417969 21.914062 C 72.289062 22.261719 72.199219 22.460938 72.160156 22.554688 C 72.089844 22.679688 72.015625 22.734375 71.90625 22.734375 C 71.832031 22.734375 71.777344 22.699219 71.722656 22.644531 C 71.667969 22.589844 71.632812 22.515625 71.632812 22.460938 C 71.632812 22.445312 71.667969 22.335938 71.722656 22.152344 C 71.796875 21.96875 71.871094 21.75 71.960938 21.511719 C 72.050781 21.257812 72.160156 20.984375 72.269531 20.691406 C 72.398438 20.398438 72.507812 20.105469 72.617188 19.832031 C 72.726562 19.558594 72.820312 19.320312 72.890625 19.121094 C 72.964844 18.921875 73.019531 18.792969 73.054688 18.71875 C 73.039062 18.699219 72.964844 18.554688 72.835938 18.246094 C 72.710938 17.933594 72.546875 17.550781 72.34375 17.09375 C 72.144531 16.636719 71.941406 16.144531 71.742188 15.617188 C 71.523438 15.085938 71.320312 14.59375 71.140625 14.136719 C 70.957031 13.679688 70.792969 13.296875 70.664062 12.988281 C 70.535156 12.675781 70.480469 12.511719 70.480469 12.492188 C 70.480469 12.3125 70.574219 12.21875 70.757812 12.21875 C 70.882812 12.21875 70.976562 12.273438 71.011719 12.382812 L 73.332031 18.027344 L 75.519531 12.402344 C 75.574219 12.257812 75.667969 12.203125 75.792969 12.203125 " fill-opacity="1" fill-rule="nonzero"/></svg>