<svg xmlns="http://www.w3.org/2000/svg" xmlns:xlink="http://www.w3.org/1999/xlink" width="115" zoomAndPan="magnify" viewBox="0 0 86.25 30.000001" height="40" preserveAspectRatio="xMidYMid meet" version="1.0"><defs><g/><clipPath id="id1"><path d="M 2 1.742188 L 28 1.742188 L 28 28 L 2 28 Z M 2 1.742188 " clip-rule="nonzero"/></clipPath></defs><g clip-path="url(#id1)"><path fill="#9ca3af" d="M 27.671875 14.742188 C 27.671875 15.597656 27.59375 16.441406 27.429688 17.28125 C 27.265625 18.117188 27.027344 18.929688 26.707031 19.71875 C 26.386719 20.507812 25.996094 21.257812 25.535156 21.96875 C 25.070312 22.675781 24.542969 23.335938 23.953125 23.9375 C 23.363281 24.542969 22.722656 25.082031 22.03125 25.554688 C 21.335938 26.027344 20.605469 26.429688 19.835938 26.757812 C 19.0625 27.082031 18.269531 27.328125 17.453125 27.496094 C 16.632812 27.664062 15.808594 27.746094 14.976562 27.746094 C 14.140625 27.746094 13.316406 27.664062 12.496094 27.496094 C 11.679688 27.328125 10.886719 27.082031 10.117188 26.757812 C 9.34375 26.429688 8.613281 26.027344 7.921875 25.554688 C 7.226562 25.082031 6.585938 24.542969 5.996094 23.9375 C 5.40625 23.335938 4.878906 22.675781 4.417969 21.96875 C 3.953125 21.257812 3.5625 20.507812 3.242188 19.71875 C 2.925781 18.929688 2.683594 18.117188 2.519531 17.28125 C 2.359375 16.441406 2.277344 15.597656 2.277344 14.742188 C 2.277344 13.890625 2.359375 13.042969 2.519531 12.207031 C 2.683594 11.371094 2.925781 10.558594 3.242188 9.769531 C 3.5625 8.980469 3.953125 8.230469 4.417969 7.519531 C 4.878906 6.8125 5.40625 6.152344 5.996094 5.550781 C 6.585938 4.945312 7.226562 4.40625 7.921875 3.933594 C 8.613281 3.457031 9.34375 3.058594 10.117188 2.730469 C 10.886719 2.40625 11.679688 2.160156 12.496094 1.992188 C 13.316406 1.824219 14.140625 1.742188 14.976562 1.742188 C 15.808594 1.742188 16.632812 1.824219 17.453125 1.992188 C 18.269531 2.160156 19.0625 2.40625 19.835938 2.730469 C 20.605469 3.058594 21.335938 3.457031 22.03125 3.933594 C 22.722656 4.40625 23.363281 4.945312 23.953125 5.550781 C 24.542969 6.152344 25.070312 6.8125 25.535156 7.519531 C 25.996094 8.230469 26.386719 8.980469 26.707031 9.769531 C 27.027344 10.558594 27.265625 11.371094 27.429688 12.207031 C 27.59375 13.042969 27.671875 13.890625 27.671875 14.742188 Z M 27.671875 14.742188 " fill-opacity="1" fill-rule="nonzero"/></g><path fill="#111827" d="M 10.980469 26.273438 C 11.5 26.453125 13.246094 27.027344 13.320312 26.464844 C 13.359375 26.15625 12.4375 25.839844 11.191406 25.171875 C 9.421875 24.226562 7.796875 23.011719 6.382812 21.574219 C 4.316406 19.523438 3.125 16.734375 3.070312 13.804688 C 2.964844 9.871094 4.484375 6.691406 6.984375 4.636719 C 3.929688 7.023438 2.097656 10.679688 2.003906 14.585938 C 1.929688 17.429688 2.714844 19.828125 4.191406 22.011719 C 4.652344 22.609375 5.1875 23.144531 5.785156 23.597656 C 7.199219 24.683594 9.269531 25.683594 10.980469 26.273438 " fill-opacity="1" fill-rule="nonzero"/><path fill="#111827" d="M 27.847656 11.765625 C 27.0625 8.015625 24.613281 5.394531 21.339844 3.539062 C 23.847656 5.34375 27.371094 9.179688 25.289062 12.5625 C 23.527344 15.273438 19.25 14.742188 16.90625 13.453125 C 14.125 11.925781 10.640625 8.488281 14.074219 5.128906 C 16.300781 2.953125 23.382812 5.394531 22.136719 8.644531 C 21.410156 10.53125 18.578125 10.113281 17.308594 9.1875 C 16.367188 8.507812 15.578125 7.335938 15.996094 6.125 C 16.128906 5.734375 16.113281 5.132812 15.570312 5.574219 C 15.171875 5.90625 14.960938 6.453125 14.890625 6.960938 C 14.300781 11.199219 21.757812 14.484375 23.972656 10.382812 C 25.121094 8.253906 23.261719 5.164062 20.917969 3.898438 C 19.15625 2.945312 17.324219 2.273438 15.078125 2.4375 C 11.484375 2.691406 8.472656 4.96875 8.09375 8.683594 C 7.714844 12.375 10.152344 15.699219 13.027344 17.6875 C 16.042969 19.773438 20.101562 21.148438 23.816406 19.90625 C 27.144531 18.789062 28.515625 14.921875 27.847656 11.765625 " fill-opacity="1" fill-rule="nonzero"/><path fill="#9ca3af" d="M 23.164062 8.894531 C 23.523438 6.464844 21.351562 4.796875 19.347656 4.039062 C 16.984375 3.148438 13.867188 3.539062 12.144531 5.515625 C 10.886719 6.972656 10.96875 9.082031 11.617188 10.789062 C 12.597656 13.371094 14.8125 15.234375 17.390625 16.042969 C 19.226562 16.613281 21.441406 16.863281 23.296875 16.257812 C 26.003906 15.375 26.886719 12.519531 26.328125 9.898438 C 26.207031 9.335938 26.023438 8.785156 25.777344 8.261719 C 25.4375 7.535156 24.386719 6.0625 25.832031 7.855469 C 25.984375 8.054688 26.121094 8.261719 26.25 8.480469 C 26.546875 8.976562 26.785156 9.503906 26.953125 10.058594 C 27.738281 12.503906 27.121094 15.355469 24.941406 16.832031 C 23.265625 17.960938 21.136719 18.09375 19.195312 17.8125 C 16.59375 17.429688 14.136719 16.15625 12.433594 14.109375 C 10.875 12.242188 9.8125 9.558594 10.453125 7.109375 C 10.921875 5.3125 12.363281 3.976562 14.085938 3.414062 C 16.265625 2.703125 18.664062 3.035156 20.625 4.195312 C 21.609375 4.773438 22.511719 5.574219 23.015625 6.625 C 23.242188 7.101562 23.363281 7.617188 23.375 8.144531 C 23.378906 8.359375 23.363281 8.570312 23.324219 8.78125 C 23.308594 8.859375 23.152344 9.074219 23.171875 8.894531 " fill-opacity="1" fill-rule="nonzero"/><g fill="#9ca3af" fill-opacity="1"><g transform="translate(32.852151, 19.715025)"><g><path d="M 1.75 -8.328125 L 0.171875 -8.328125 L 0.171875 -9.296875 L 4.5625 -9.296875 L 4.5625 -8.328125 L 3.046875 -8.328125 L 3.046875 0 L 1.75 0 Z M 1.75 -8.328125 "/></g></g></g><g fill="#9ca3af" fill-opacity="1"><g transform="translate(39.684106, 19.715025)"><g><path d="M 0.71875 -9.296875 L 2.59375 -9.296875 C 3.53125 -9.296875 4.21875 -9.097656 4.65625 -8.703125 C 5.101562 -8.316406 5.328125 -7.691406 5.328125 -6.828125 C 5.328125 -5.628906 4.941406 -4.90625 4.171875 -4.65625 L 5.5 0 L 4.25 0 L 3.03125 -4.359375 L 2.015625 -4.359375 L 2.015625 0 L 0.71875 0 Z M 2.515625 -5.28125 C 3.066406 -5.28125 3.460938 -5.390625 3.703125 -5.609375 C 3.953125 -5.835938 4.078125 -6.242188 4.078125 -6.828125 C 4.078125 -7.203125 4.03125 -7.5 3.9375 -7.71875 C 3.851562 -7.9375 3.703125 -8.097656 3.484375 -8.203125 C 3.273438 -8.304688 2.976562 -8.359375 2.59375 -8.359375 L 2.015625 -8.359375 L 2.015625 -5.28125 Z M 2.515625 -5.28125 "/></g></g></g><g fill="#9ca3af" fill-opacity="1"><g transform="translate(47.730744, 19.715025)"><g><path d="M 3.125 0.109375 C 2.46875 0.109375 1.957031 -0.0195312 1.59375 -0.28125 C 1.238281 -0.539062 0.988281 -0.90625 0.84375 -1.375 C 0.707031 -1.84375 0.640625 -2.425781 0.640625 -3.125 L 0.640625 -9.296875 L 1.875 -9.296875 L 1.875 -3.078125 C 1.875 -2.367188 1.957031 -1.832031 2.125 -1.46875 C 2.289062 -1.101562 2.625 -0.921875 3.125 -0.921875 C 3.613281 -0.921875 3.941406 -1.101562 4.109375 -1.46875 C 4.273438 -1.832031 4.359375 -2.367188 4.359375 -3.078125 L 4.359375 -9.296875 L 5.578125 -9.296875 L 5.578125 -3.125 C 5.578125 -2.425781 5.507812 -1.84375 5.375 -1.375 C 5.238281 -0.90625 4.988281 -0.539062 4.625 -0.28125 C 4.269531 -0.0195312 3.769531 0.109375 3.125 0.109375 Z M 3.125 0.109375 "/></g></g></g><g fill="#9ca3af" fill-opacity="1"><g transform="translate(56.0524, 19.715025)"><g><path d="M 0.71875 -9.296875 L 4.3125 -9.296875 L 4.3125 -8.359375 L 2.015625 -8.359375 L 2.015625 -5.265625 L 3.796875 -5.265625 L 3.796875 -4.34375 L 2.015625 -4.34375 L 2.015625 0 L 0.71875 0 Z M 0.71875 -9.296875 "/></g></g></g><g fill="#9ca3af" fill-opacity="1"><g transform="translate(62.632258, 19.715025)"><g><path d="M 0.71875 -9.296875 L 4.3125 -9.296875 L 4.3125 -8.359375 L 2.015625 -8.359375 L 2.015625 -5.265625 L 3.796875 -5.265625 L 3.796875 -4.34375 L 2.015625 -4.34375 L 2.015625 0 L 0.71875 0 Z M 0.71875 -9.296875 "/></g></g></g><g fill="#9ca3af" fill-opacity="1"><g transform="translate(69.212116, 19.715025)"><g><path d="M 0.71875 -9.296875 L 2.015625 -9.296875 L 2.015625 -0.921875 L 4.390625 -0.921875 L 4.390625 0 L 0.71875 0 Z M 0.71875 -9.296875 "/></g></g></g><g fill="#9ca3af" fill-opacity="1"><g transform="translate(75.860726, 19.715025)"><g><path d="M 0.71875 -9.296875 L 4.328125 -9.296875 L 4.328125 -8.328125 L 2.015625 -8.328125 L 2.015625 -5.25 L 3.890625 -5.25 L 3.890625 -4.328125 L 2.015625 -4.328125 L 2.015625 -0.921875 L 4.34375 -0.921875 L 4.34375 0 L 0.71875 0 Z M 0.71875 -9.296875 "/></g></g></g></svg>