<svg xmlns="http://www.w3.org/2000/svg" xmlns:xlink="http://www.w3.org/1999/xlink" width="115" zoomAndPan="magnify" viewBox="0 0 86.25 30.000001" height="40" preserveAspectRatio="xMidYMid meet" version="1.0"><defs><g/><clipPath id="id1"><path d="M 3.929688 2.902344 L 15 2.902344 L 15 18 L 3.929688 18 Z M 3.929688 2.902344 " clip-rule="nonzero"/></clipPath><clipPath id="id2"><path d="M 15 11 L 29.335938 11 L 29.335938 26.855469 L 15 26.855469 Z M 15 11 " clip-rule="nonzero"/></clipPath></defs><g clip-path="url(#id1)"><path fill="#9ca3af" d="M 12.402344 7.273438 C 12.402344 7.273438 11.460938 7.820312 11.460938 8.910156 C 11.460938 10.003906 11.460938 14.367188 11.460938 14.367188 C 11.460938 14.367188 11.460938 15.460938 10.519531 14.914062 C 9.578125 14.367188 9.578125 13.277344 9.578125 13.277344 C 9.578125 13.277344 9.578125 8.910156 9.578125 7.820312 C 9.578125 7.75 9.582031 7.683594 9.589844 7.621094 C 9.691406 6.660156 10.519531 6.179688 10.519531 6.179688 L 8.636719 5.089844 C 8.636719 5.089844 8.636719 5.089844 8.632812 5.089844 C 8.578125 5.121094 7.695312 5.667969 7.695312 6.726562 C 7.695312 7.820312 7.695312 12.183594 7.695312 12.183594 C 7.695312 12.183594 7.695312 13.277344 6.753906 12.730469 C 5.8125 12.183594 5.8125 11.089844 5.8125 11.089844 C 5.8125 11.089844 5.8125 6.726562 5.8125 5.632812 C 5.8125 4.542969 6.753906 3.996094 6.753906 3.996094 L 4.875 2.902344 C 4.875 2.902344 3.933594 3.449219 3.933594 4.542969 C 3.933594 5.632812 3.933594 9.996094 3.933594 9.996094 C 3.933594 9.996094 3.933594 13.277344 6.753906 14.914062 C 7.621094 15.417969 8.21875 15.457031 8.636719 15.269531 C 9.050781 15.9375 9.652344 16.597656 10.515625 17.097656 C 13.339844 18.738281 13.339844 15.460938 13.339844 15.460938 C 13.339844 15.460938 13.339844 11.097656 13.339844 10.003906 C 13.339844 8.910156 14.28125 8.367188 14.28125 8.367188 C 13.992188 8 13.734375 7.75 13.507812 7.621094 C 13.316406 7.507812 12.949219 7.394531 12.402344 7.273438 Z M 12.402344 7.273438 " fill-opacity="1" fill-rule="nonzero"/></g><g clip-path="url(#id2)"><path fill="#9ca3af" d="M 22.75 16.558594 C 22.75 13.320312 25.570312 14.917969 25.570312 14.917969 L 29.332031 17.105469 L 29.332031 19.289062 L 25.570312 17.105469 C 25.570312 17.105469 25.558594 17.097656 25.539062 17.085938 L 25.527344 17.078125 C 25.339844 16.988281 24.628906 16.703125 24.628906 17.652344 C 24.628906 18.742188 25.570312 19.289062 25.570312 19.289062 L 27.453125 20.382812 C 27.453125 20.382812 29.332031 21.476562 29.332031 24.75 C 29.332031 28.027344 26.511719 26.390625 26.511719 26.390625 L 22.75 24.203125 L 22.75 22.019531 L 26.511719 24.203125 C 26.511719 24.203125 27.453125 24.75 27.453125 23.65625 C 27.453125 22.566406 26.511719 22.019531 26.511719 22.019531 L 25.570312 21.472656 C 25.515625 21.4375 22.75 19.761719 22.75 16.558594 Z M 19.925781 11.640625 C 20.488281 11.707031 20.871094 11.796875 21.070312 11.914062 C 21.289062 12.042969 21.535156 12.316406 21.808594 12.734375 C 21.808594 12.734375 20.867188 13.28125 20.867188 14.375 L 20.867188 19.839844 C 20.863281 20.023438 20.78125 23.058594 18.042969 21.46875 C 15.304688 19.878906 15.222656 16.746094 15.222656 16.5625 L 15.222656 16.550781 L 17.101562 17.644531 L 17.101562 17.648438 C 17.105469 17.71875 17.132812 18.753906 18.042969 19.285156 C 18.957031 19.8125 18.984375 18.800781 18.984375 18.738281 L 18.984375 13.28125 C 18.984375 12.1875 19.925781 11.640625 19.925781 11.640625 Z M 15.226562 12.199219 L 17.105469 13.292969 L 17.105469 15.476562 L 15.226562 14.386719 Z M 15.226562 12.199219 " fill-opacity="1" fill-rule="nonzero"/></g><path fill="#9ca3af" d="M 25.570312 7.273438 C 24.703125 6.769531 23.925781 6.523438 23.265625 6.425781 C 23.09375 6.046875 22.667969 5.597656 21.808594 5.105469 C 18.988281 3.484375 16.167969 5.089844 16.167969 5.089844 L 12.402344 7.273438 L 14.285156 8.363281 L 18.046875 6.179688 C 18.046875 6.179688 18.988281 5.632812 19.925781 6.179688 C 20.867188 6.726562 19.925781 7.273438 19.925781 7.273438 L 16.164062 9.457031 L 18.046875 10.550781 L 21.8125 8.363281 C 21.867188 8.332031 22.777344 7.835938 23.6875 8.363281 C 24.628906 8.910156 23.6875 9.457031 23.6875 9.457031 L 19.925781 11.640625 L 21.808594 12.734375 L 26.511719 10.003906 C 26.511719 10.003906 28.390625 8.910156 25.570312 7.273438 Z M 25.570312 7.273438 " fill-opacity="1" fill-rule="nonzero"/><g fill="#9ca3af" fill-opacity="1"><g transform="translate(36.622015, 18.252161)"><g><path d="M 2.234375 0 L 3.476562 0 L 5.082031 -5.332031 L 5.105469 -5.332031 L 6.761719 0 L 7.992188 0 L 10.074219 -6.335938 L 9.085938 -6.335938 L 7.402344 -0.929688 L 7.390625 -0.929688 L 5.695312 -6.335938 L 4.503906 -6.335938 L 2.835938 -0.941406 L 2.824219 -0.941406 L 1.128906 -6.335938 L 0.125 -6.335938 Z M 2.234375 0 "/></g></g></g><g fill="#9ca3af" fill-opacity="1"><g transform="translate(46.82208, 18.252161)"><g><path d="M 3.878906 0.25 C 5.292969 0.25 6.488281 -0.464844 6.902344 -1.480469 L 6.074219 -1.820312 C 5.722656 -1.128906 4.878906 -0.613281 3.890625 -0.613281 C 2.523438 -0.613281 1.503906 -1.53125 1.367188 -2.847656 L 6.699219 -2.847656 C 6.710938 -2.972656 6.710938 -3.113281 6.710938 -3.222656 C 6.6875 -5.183594 5.46875 -6.585938 3.613281 -6.585938 C 1.730469 -6.585938 0.375 -5.183594 0.375 -3.238281 C 0.375 -1.21875 1.855469 0.25 3.878906 0.25 Z M 1.378906 -3.6875 C 1.554688 -4.894531 2.421875 -5.707031 3.601562 -5.707031 C 4.753906 -5.707031 5.570312 -4.980469 5.695312 -3.6875 Z M 1.378906 -3.6875 "/></g></g></g><g fill="#9ca3af" fill-opacity="1"><g transform="translate(54.023605, 18.252161)"><g><path d="M 4.039062 0.25 C 5.898438 0.25 7.265625 -1.191406 7.265625 -3.160156 C 7.265625 -5.144531 5.898438 -6.585938 4.050781 -6.585938 C 3 -6.585938 2.144531 -6.097656 1.59375 -5.269531 L 1.582031 -5.269531 L 1.582031 -9.222656 L 0.628906 -9.222656 L 0.628906 0 L 1.457031 0 L 1.554688 -1.089844 L 1.570312 -1.089844 C 2.109375 -0.25 2.972656 0.25 4.039062 0.25 Z M 3.925781 -0.613281 C 2.558594 -0.613281 1.554688 -1.730469 1.554688 -3.160156 C 1.554688 -4.605469 2.558594 -5.707031 3.925781 -5.707031 C 5.308594 -5.707031 6.296875 -4.605469 6.296875 -3.160156 C 6.296875 -1.707031 5.292969 -0.613281 3.925781 -0.613281 Z M 3.925781 -0.613281 "/></g></g></g><g fill="#9ca3af" fill-opacity="1"><g transform="translate(61.664247, 18.252161)"><g><path d="M 3.925781 0.3125 C 5.722656 0.3125 6.988281 -0.804688 6.988281 -2.332031 C 6.988281 -3.398438 6.363281 -4.214844 5.21875 -4.605469 L 5.21875 -4.628906 C 6.011719 -4.917969 6.511719 -5.707031 6.511719 -6.613281 C 6.511719 -8.03125 5.40625 -9.058594 3.890625 -9.058594 C 2.207031 -9.058594 1.003906 -7.816406 0.980469 -6.085938 L 2.03125 -5.972656 C 2.046875 -7.226562 2.824219 -8.128906 3.878906 -8.128906 C 4.78125 -8.128906 5.445312 -7.441406 5.445312 -6.488281 C 5.445312 -5.660156 4.929688 -5.042969 4.101562 -5.019531 L 3.511719 -4.992188 L 3.511719 -4.179688 L 4.191406 -4.152344 C 5.042969 -4.128906 5.933594 -3.398438 5.933594 -2.371094 C 5.933594 -1.355469 5.082031 -0.613281 3.878906 -0.613281 C 2.496094 -0.613281 1.542969 -1.644531 1.46875 -3.050781 L 0.5 -2.824219 C 0.601562 -0.992188 2.046875 0.3125 3.925781 0.3125 Z M 3.925781 0.3125 "/></g></g></g><g fill="#9ca3af" fill-opacity="1"><g transform="translate(69.154325, 18.252161)"><g><path d="M 1.203125 0.152344 C 1.617188 0.152344 1.917969 -0.136719 1.917969 -0.550781 C 1.917969 -0.953125 1.617188 -1.242188 1.203125 -1.242188 C 0.789062 -1.242188 0.5 -0.953125 0.5 -0.550781 C 0.5 -0.136719 0.789062 0.152344 1.203125 0.152344 Z M 1.203125 0.152344 "/></g></g></g><g fill="#9ca3af" fill-opacity="1"><g transform="translate(71.575746, 18.252161)"><g><path d="M 1.21875 -7.566406 C 1.632812 -7.566406 1.933594 -7.855469 1.933594 -8.269531 C 1.933594 -8.671875 1.632812 -8.957031 1.21875 -8.957031 C 0.804688 -8.957031 0.515625 -8.671875 0.515625 -8.269531 C 0.515625 -7.855469 0.804688 -7.566406 1.21875 -7.566406 Z M -0.238281 2.886719 C 0.964844 2.886719 1.695312 2.171875 1.695312 0.992188 L 1.695312 -6.335938 L 0.726562 -6.335938 L 0.726562 0.902344 C 0.726562 1.617188 0.339844 2.046875 -0.3125 2.046875 C -0.527344 2.046875 -0.789062 2.007812 -1.027344 1.917969 L -1.140625 2.710938 C -0.878906 2.835938 -0.539062 2.886719 -0.238281 2.886719 Z M -0.238281 2.886719 "/></g></g></g><g fill="#9ca3af" fill-opacity="1"><g transform="translate(74.009706, 18.252161)"><g><path d="M 3.25 0.25 C 4.78125 0.25 5.933594 -0.628906 5.933594 -1.820312 C 5.933594 -2.761719 5.292969 -3.289062 3.800781 -3.601562 L 2.773438 -3.800781 C 1.894531 -3.988281 1.519531 -4.253906 1.519531 -4.71875 C 1.53125 -5.257812 2.121094 -5.746094 2.921875 -5.746094 C 3.828125 -5.746094 4.492188 -5.257812 4.578125 -4.59375 L 5.496094 -4.84375 C 5.257812 -5.871094 4.265625 -6.585938 2.9375 -6.585938 C 1.582031 -6.585938 0.601562 -5.773438 0.589844 -4.667969 C 0.589844 -3.738281 1.15625 -3.210938 2.472656 -2.9375 L 3.476562 -2.734375 C 4.542969 -2.523438 5.007812 -2.222656 5.007812 -1.730469 C 5.007812 -1.078125 4.242188 -0.613281 3.25 -0.613281 C 2.121094 -0.613281 1.265625 -1.230469 1.191406 -2.109375 L 0.25 -1.917969 C 0.363281 -0.566406 1.667969 0.25 3.25 0.25 Z M 3.25 0.25 "/></g></g></g></svg>